<?xml version="1.0" encoding="utf-8" standalone="no"?>
<!DOCTYPE svg PUBLIC "-//W3C//DTD SVG 1.1//EN"
  "http://www.w3.org/Graphics/SVG/1.1/DTD/svg11.dtd">
<!-- Created with matplotlib (https://matplotlib.org/) -->
<svg height="699.674375pt" version="1.1" viewBox="0 0 1059.515625 699.674375" width="1059.515625pt" xmlns="http://www.w3.org/2000/svg" xmlns:xlink="http://www.w3.org/1999/xlink">
 <metadata>
  <rdf:RDF xmlns:cc="http://creativecommons.org/ns#" xmlns:dc="http://purl.org/dc/elements/1.1/" xmlns:rdf="http://www.w3.org/1999/02/22-rdf-syntax-ns#">
   <cc:Work>
    <dc:type rdf:resource="http://purl.org/dc/dcmitype/StillImage"/>
    <dc:date>2024-05-12T23:34:25.288780</dc:date>
    <dc:format>image/svg+xml</dc:format>
    <dc:creator>
     <cc:Agent>
      <dc:title>Matplotlib v3.3.2, https://matplotlib.org/</dc:title>
     </cc:Agent>
    </dc:creator>
   </cc:Work>
  </rdf:RDF>
 </metadata>
 <defs>
  <style type="text/css">*{stroke-linecap:butt;stroke-linejoin:round;}</style>
 </defs>
 <g id="figure_1">
  <g id="patch_1">
   <path d="M 0 699.674375 
L 1059.515625 699.674375 
L 1059.515625 0 
L 0 0 
z
" style="fill:#ffffff;"/>
  </g>
  <g id="axes_1">
   <g id="patch_2">
    <path d="M 39.765625 314.318125 
L 522.940625 314.318125 
L 522.940625 15.118125 
L 39.765625 15.118125 
z
" style="fill:#ffffff;"/>
   </g>
   <g id="matplotlib.axis_1">
    <g id="xtick_1">
     <g id="line2d_1">
      <defs>
       <path d="M 0 0 
L 0 3.5 
" id="m62710466ec" style="stroke:#000000;stroke-width:0.8;"/>
      </defs>
      <g>
       <use style="stroke:#000000;stroke-width:0.8;" x="110.533681" xlink:href="#m62710466ec" y="314.318125"/>
      </g>
     </g>
     <g id="text_1">
      <!-- 20 -->
      <g transform="translate(104.171181 328.916562)scale(0.1 -0.1)">
       <defs>
        <path d="M 19.1875 8.296875 
L 53.609375 8.296875 
L 53.609375 0 
L 7.328125 0 
L 7.328125 8.296875 
Q 12.9375 14.109375 22.625 23.890625 
Q 32.328125 33.6875 34.8125 36.53125 
Q 39.546875 41.84375 41.421875 45.53125 
Q 43.3125 49.21875 43.3125 52.78125 
Q 43.3125 58.59375 39.234375 62.25 
Q 35.15625 65.921875 28.609375 65.921875 
Q 23.96875 65.921875 18.8125 64.3125 
Q 13.671875 62.703125 7.8125 59.421875 
L 7.8125 69.390625 
Q 13.765625 71.78125 18.9375 73 
Q 24.125 74.21875 28.421875 74.21875 
Q 39.75 74.21875 46.484375 68.546875 
Q 53.21875 62.890625 53.21875 53.421875 
Q 53.21875 48.921875 51.53125 44.890625 
Q 49.859375 40.875 45.40625 35.40625 
Q 44.1875 33.984375 37.640625 27.21875 
Q 31.109375 20.453125 19.1875 8.296875 
z
" id="DejaVuSans-50"/>
        <path d="M 31.78125 66.40625 
Q 24.171875 66.40625 20.328125 58.90625 
Q 16.5 51.421875 16.5 36.375 
Q 16.5 21.390625 20.328125 13.890625 
Q 24.171875 6.390625 31.78125 6.390625 
Q 39.453125 6.390625 43.28125 13.890625 
Q 47.125 21.390625 47.125 36.375 
Q 47.125 51.421875 43.28125 58.90625 
Q 39.453125 66.40625 31.78125 66.40625 
z
M 31.78125 74.21875 
Q 44.046875 74.21875 50.515625 64.515625 
Q 56.984375 54.828125 56.984375 36.375 
Q 56.984375 17.96875 50.515625 8.265625 
Q 44.046875 -1.421875 31.78125 -1.421875 
Q 19.53125 -1.421875 13.0625 8.265625 
Q 6.59375 17.96875 6.59375 36.375 
Q 6.59375 54.828125 13.0625 64.515625 
Q 19.53125 74.21875 31.78125 74.21875 
z
" id="DejaVuSans-48"/>
       </defs>
       <use xlink:href="#DejaVuSans-50"/>
       <use x="63.623047" xlink:href="#DejaVuSans-48"/>
      </g>
     </g>
    </g>
    <g id="xtick_2">
     <g id="line2d_2">
      <g>
       <use style="stroke:#000000;stroke-width:0.8;" x="208.144792" xlink:href="#m62710466ec" y="314.318125"/>
      </g>
     </g>
     <g id="text_2">
      <!-- 40 -->
      <g transform="translate(201.782292 328.916562)scale(0.1 -0.1)">
       <defs>
        <path d="M 37.796875 64.3125 
L 12.890625 25.390625 
L 37.796875 25.390625 
z
M 35.203125 72.90625 
L 47.609375 72.90625 
L 47.609375 25.390625 
L 58.015625 25.390625 
L 58.015625 17.1875 
L 47.609375 17.1875 
L 47.609375 0 
L 37.796875 0 
L 37.796875 17.1875 
L 4.890625 17.1875 
L 4.890625 26.703125 
z
" id="DejaVuSans-52"/>
       </defs>
       <use xlink:href="#DejaVuSans-52"/>
       <use x="63.623047" xlink:href="#DejaVuSans-48"/>
      </g>
     </g>
    </g>
    <g id="xtick_3">
     <g id="line2d_3">
      <g>
       <use style="stroke:#000000;stroke-width:0.8;" x="305.755903" xlink:href="#m62710466ec" y="314.318125"/>
      </g>
     </g>
     <g id="text_3">
      <!-- 60 -->
      <g transform="translate(299.393403 328.916562)scale(0.1 -0.1)">
       <defs>
        <path d="M 33.015625 40.375 
Q 26.375 40.375 22.484375 35.828125 
Q 18.609375 31.296875 18.609375 23.390625 
Q 18.609375 15.53125 22.484375 10.953125 
Q 26.375 6.390625 33.015625 6.390625 
Q 39.65625 6.390625 43.53125 10.953125 
Q 47.40625 15.53125 47.40625 23.390625 
Q 47.40625 31.296875 43.53125 35.828125 
Q 39.65625 40.375 33.015625 40.375 
z
M 52.59375 71.296875 
L 52.59375 62.3125 
Q 48.875 64.0625 45.09375 64.984375 
Q 41.3125 65.921875 37.59375 65.921875 
Q 27.828125 65.921875 22.671875 59.328125 
Q 17.53125 52.734375 16.796875 39.40625 
Q 19.671875 43.65625 24.015625 45.921875 
Q 28.375 48.1875 33.59375 48.1875 
Q 44.578125 48.1875 50.953125 41.515625 
Q 57.328125 34.859375 57.328125 23.390625 
Q 57.328125 12.15625 50.6875 5.359375 
Q 44.046875 -1.421875 33.015625 -1.421875 
Q 20.359375 -1.421875 13.671875 8.265625 
Q 6.984375 17.96875 6.984375 36.375 
Q 6.984375 53.65625 15.1875 63.9375 
Q 23.390625 74.21875 37.203125 74.21875 
Q 40.921875 74.21875 44.703125 73.484375 
Q 48.484375 72.75 52.59375 71.296875 
z
" id="DejaVuSans-54"/>
       </defs>
       <use xlink:href="#DejaVuSans-54"/>
       <use x="63.623047" xlink:href="#DejaVuSans-48"/>
      </g>
     </g>
    </g>
    <g id="xtick_4">
     <g id="line2d_4">
      <g>
       <use style="stroke:#000000;stroke-width:0.8;" x="403.367014" xlink:href="#m62710466ec" y="314.318125"/>
      </g>
     </g>
     <g id="text_4">
      <!-- 80 -->
      <g transform="translate(397.004514 328.916562)scale(0.1 -0.1)">
       <defs>
        <path d="M 31.78125 34.625 
Q 24.75 34.625 20.71875 30.859375 
Q 16.703125 27.09375 16.703125 20.515625 
Q 16.703125 13.921875 20.71875 10.15625 
Q 24.75 6.390625 31.78125 6.390625 
Q 38.8125 6.390625 42.859375 10.171875 
Q 46.921875 13.96875 46.921875 20.515625 
Q 46.921875 27.09375 42.890625 30.859375 
Q 38.875 34.625 31.78125 34.625 
z
M 21.921875 38.8125 
Q 15.578125 40.375 12.03125 44.71875 
Q 8.5 49.078125 8.5 55.328125 
Q 8.5 64.0625 14.71875 69.140625 
Q 20.953125 74.21875 31.78125 74.21875 
Q 42.671875 74.21875 48.875 69.140625 
Q 55.078125 64.0625 55.078125 55.328125 
Q 55.078125 49.078125 51.53125 44.71875 
Q 48 40.375 41.703125 38.8125 
Q 48.828125 37.15625 52.796875 32.3125 
Q 56.78125 27.484375 56.78125 20.515625 
Q 56.78125 9.90625 50.3125 4.234375 
Q 43.84375 -1.421875 31.78125 -1.421875 
Q 19.734375 -1.421875 13.25 4.234375 
Q 6.78125 9.90625 6.78125 20.515625 
Q 6.78125 27.484375 10.78125 32.3125 
Q 14.796875 37.15625 21.921875 38.8125 
z
M 18.3125 54.390625 
Q 18.3125 48.734375 21.84375 45.5625 
Q 25.390625 42.390625 31.78125 42.390625 
Q 38.140625 42.390625 41.71875 45.5625 
Q 45.3125 48.734375 45.3125 54.390625 
Q 45.3125 60.0625 41.71875 63.234375 
Q 38.140625 66.40625 31.78125 66.40625 
Q 25.390625 66.40625 21.84375 63.234375 
Q 18.3125 60.0625 18.3125 54.390625 
z
" id="DejaVuSans-56"/>
       </defs>
       <use xlink:href="#DejaVuSans-56"/>
       <use x="63.623047" xlink:href="#DejaVuSans-48"/>
      </g>
     </g>
    </g>
    <g id="xtick_5">
     <g id="line2d_5">
      <g>
       <use style="stroke:#000000;stroke-width:0.8;" x="500.978125" xlink:href="#m62710466ec" y="314.318125"/>
      </g>
     </g>
     <g id="text_5">
      <!-- 100 -->
      <g transform="translate(491.434375 328.916562)scale(0.1 -0.1)">
       <defs>
        <path d="M 12.40625 8.296875 
L 28.515625 8.296875 
L 28.515625 63.921875 
L 10.984375 60.40625 
L 10.984375 69.390625 
L 28.421875 72.90625 
L 38.28125 72.90625 
L 38.28125 8.296875 
L 54.390625 8.296875 
L 54.390625 0 
L 12.40625 0 
z
" id="DejaVuSans-49"/>
       </defs>
       <use xlink:href="#DejaVuSans-49"/>
       <use x="63.623047" xlink:href="#DejaVuSans-48"/>
       <use x="127.246094" xlink:href="#DejaVuSans-48"/>
      </g>
     </g>
    </g>
    <g id="text_6">
     <!-- Confiance -->
     <g transform="translate(256.425781 342.594688)scale(0.1 -0.1)">
      <defs>
       <path d="M 64.40625 67.28125 
L 64.40625 56.890625 
Q 59.421875 61.53125 53.78125 63.8125 
Q 48.140625 66.109375 41.796875 66.109375 
Q 29.296875 66.109375 22.65625 58.46875 
Q 16.015625 50.828125 16.015625 36.375 
Q 16.015625 21.96875 22.65625 14.328125 
Q 29.296875 6.6875 41.796875 6.6875 
Q 48.140625 6.6875 53.78125 8.984375 
Q 59.421875 11.28125 64.40625 15.921875 
L 64.40625 5.609375 
Q 59.234375 2.09375 53.4375 0.328125 
Q 47.65625 -1.421875 41.21875 -1.421875 
Q 24.65625 -1.421875 15.125 8.703125 
Q 5.609375 18.84375 5.609375 36.375 
Q 5.609375 53.953125 15.125 64.078125 
Q 24.65625 74.21875 41.21875 74.21875 
Q 47.75 74.21875 53.53125 72.484375 
Q 59.328125 70.75 64.40625 67.28125 
z
" id="DejaVuSans-67"/>
       <path d="M 30.609375 48.390625 
Q 23.390625 48.390625 19.1875 42.75 
Q 14.984375 37.109375 14.984375 27.296875 
Q 14.984375 17.484375 19.15625 11.84375 
Q 23.34375 6.203125 30.609375 6.203125 
Q 37.796875 6.203125 41.984375 11.859375 
Q 46.1875 17.53125 46.1875 27.296875 
Q 46.1875 37.015625 41.984375 42.703125 
Q 37.796875 48.390625 30.609375 48.390625 
z
M 30.609375 56 
Q 42.328125 56 49.015625 48.375 
Q 55.71875 40.765625 55.71875 27.296875 
Q 55.71875 13.875 49.015625 6.21875 
Q 42.328125 -1.421875 30.609375 -1.421875 
Q 18.84375 -1.421875 12.171875 6.21875 
Q 5.515625 13.875 5.515625 27.296875 
Q 5.515625 40.765625 12.171875 48.375 
Q 18.84375 56 30.609375 56 
z
" id="DejaVuSans-111"/>
       <path d="M 54.890625 33.015625 
L 54.890625 0 
L 45.90625 0 
L 45.90625 32.71875 
Q 45.90625 40.484375 42.875 44.328125 
Q 39.84375 48.1875 33.796875 48.1875 
Q 26.515625 48.1875 22.3125 43.546875 
Q 18.109375 38.921875 18.109375 30.90625 
L 18.109375 0 
L 9.078125 0 
L 9.078125 54.6875 
L 18.109375 54.6875 
L 18.109375 46.1875 
Q 21.34375 51.125 25.703125 53.5625 
Q 30.078125 56 35.796875 56 
Q 45.21875 56 50.046875 50.171875 
Q 54.890625 44.34375 54.890625 33.015625 
z
" id="DejaVuSans-110"/>
       <path d="M 37.109375 75.984375 
L 37.109375 68.5 
L 28.515625 68.5 
Q 23.6875 68.5 21.796875 66.546875 
Q 19.921875 64.59375 19.921875 59.515625 
L 19.921875 54.6875 
L 34.71875 54.6875 
L 34.71875 47.703125 
L 19.921875 47.703125 
L 19.921875 0 
L 10.890625 0 
L 10.890625 47.703125 
L 2.296875 47.703125 
L 2.296875 54.6875 
L 10.890625 54.6875 
L 10.890625 58.5 
Q 10.890625 67.625 15.140625 71.796875 
Q 19.390625 75.984375 28.609375 75.984375 
z
" id="DejaVuSans-102"/>
       <path d="M 9.421875 54.6875 
L 18.40625 54.6875 
L 18.40625 0 
L 9.421875 0 
z
M 9.421875 75.984375 
L 18.40625 75.984375 
L 18.40625 64.59375 
L 9.421875 64.59375 
z
" id="DejaVuSans-105"/>
       <path d="M 34.28125 27.484375 
Q 23.390625 27.484375 19.1875 25 
Q 14.984375 22.515625 14.984375 16.5 
Q 14.984375 11.71875 18.140625 8.90625 
Q 21.296875 6.109375 26.703125 6.109375 
Q 34.1875 6.109375 38.703125 11.40625 
Q 43.21875 16.703125 43.21875 25.484375 
L 43.21875 27.484375 
z
M 52.203125 31.203125 
L 52.203125 0 
L 43.21875 0 
L 43.21875 8.296875 
Q 40.140625 3.328125 35.546875 0.953125 
Q 30.953125 -1.421875 24.3125 -1.421875 
Q 15.921875 -1.421875 10.953125 3.296875 
Q 6 8.015625 6 15.921875 
Q 6 25.140625 12.171875 29.828125 
Q 18.359375 34.515625 30.609375 34.515625 
L 43.21875 34.515625 
L 43.21875 35.40625 
Q 43.21875 41.609375 39.140625 45 
Q 35.0625 48.390625 27.6875 48.390625 
Q 23 48.390625 18.546875 47.265625 
Q 14.109375 46.140625 10.015625 43.890625 
L 10.015625 52.203125 
Q 14.9375 54.109375 19.578125 55.046875 
Q 24.21875 56 28.609375 56 
Q 40.484375 56 46.34375 49.84375 
Q 52.203125 43.703125 52.203125 31.203125 
z
" id="DejaVuSans-97"/>
       <path d="M 48.78125 52.59375 
L 48.78125 44.1875 
Q 44.96875 46.296875 41.140625 47.34375 
Q 37.3125 48.390625 33.40625 48.390625 
Q 24.65625 48.390625 19.8125 42.84375 
Q 14.984375 37.3125 14.984375 27.296875 
Q 14.984375 17.28125 19.8125 11.734375 
Q 24.65625 6.203125 33.40625 6.203125 
Q 37.3125 6.203125 41.140625 7.25 
Q 44.96875 8.296875 48.78125 10.40625 
L 48.78125 2.09375 
Q 45.015625 0.34375 40.984375 -0.53125 
Q 36.96875 -1.421875 32.421875 -1.421875 
Q 20.0625 -1.421875 12.78125 6.34375 
Q 5.515625 14.109375 5.515625 27.296875 
Q 5.515625 40.671875 12.859375 48.328125 
Q 20.21875 56 33.015625 56 
Q 37.15625 56 41.109375 55.140625 
Q 45.0625 54.296875 48.78125 52.59375 
z
" id="DejaVuSans-99"/>
       <path d="M 56.203125 29.59375 
L 56.203125 25.203125 
L 14.890625 25.203125 
Q 15.484375 15.921875 20.484375 11.0625 
Q 25.484375 6.203125 34.421875 6.203125 
Q 39.59375 6.203125 44.453125 7.46875 
Q 49.3125 8.734375 54.109375 11.28125 
L 54.109375 2.78125 
Q 49.265625 0.734375 44.1875 -0.34375 
Q 39.109375 -1.421875 33.890625 -1.421875 
Q 20.796875 -1.421875 13.15625 6.1875 
Q 5.515625 13.8125 5.515625 26.8125 
Q 5.515625 40.234375 12.765625 48.109375 
Q 20.015625 56 32.328125 56 
Q 43.359375 56 49.78125 48.890625 
Q 56.203125 41.796875 56.203125 29.59375 
z
M 47.21875 32.234375 
Q 47.125 39.59375 43.09375 43.984375 
Q 39.0625 48.390625 32.421875 48.390625 
Q 24.90625 48.390625 20.390625 44.140625 
Q 15.875 39.890625 15.1875 32.171875 
z
" id="DejaVuSans-101"/>
      </defs>
      <use xlink:href="#DejaVuSans-67"/>
      <use x="69.824219" xlink:href="#DejaVuSans-111"/>
      <use x="131.005859" xlink:href="#DejaVuSans-110"/>
      <use x="194.384766" xlink:href="#DejaVuSans-102"/>
      <use x="229.589844" xlink:href="#DejaVuSans-105"/>
      <use x="257.373047" xlink:href="#DejaVuSans-97"/>
      <use x="318.652344" xlink:href="#DejaVuSans-110"/>
      <use x="382.03125" xlink:href="#DejaVuSans-99"/>
      <use x="437.011719" xlink:href="#DejaVuSans-101"/>
     </g>
    </g>
   </g>
   <g id="matplotlib.axis_2">
    <g id="ytick_1">
     <g id="line2d_6">
      <defs>
       <path d="M 0 0 
L -3.5 0 
" id="mc5de3d98aa" style="stroke:#000000;stroke-width:0.8;"/>
      </defs>
      <g>
       <use style="stroke:#000000;stroke-width:0.8;" x="39.765625" xlink:href="#mc5de3d98aa" y="307.613669"/>
      </g>
     </g>
     <g id="text_7">
      <!-- 0 -->
      <g transform="translate(26.403125 311.412888)scale(0.1 -0.1)">
       <use xlink:href="#DejaVuSans-48"/>
      </g>
     </g>
    </g>
    <g id="ytick_2">
     <g id="line2d_7">
      <g>
       <use style="stroke:#000000;stroke-width:0.8;" x="39.765625" xlink:href="#mc5de3d98aa" y="249.176854"/>
      </g>
     </g>
     <g id="text_8">
      <!-- 5 -->
      <g transform="translate(26.403125 252.976073)scale(0.1 -0.1)">
       <defs>
        <path d="M 10.796875 72.90625 
L 49.515625 72.90625 
L 49.515625 64.59375 
L 19.828125 64.59375 
L 19.828125 46.734375 
Q 21.96875 47.46875 24.109375 47.828125 
Q 26.265625 48.1875 28.421875 48.1875 
Q 40.625 48.1875 47.75 41.5 
Q 54.890625 34.8125 54.890625 23.390625 
Q 54.890625 11.625 47.5625 5.09375 
Q 40.234375 -1.421875 26.90625 -1.421875 
Q 22.3125 -1.421875 17.546875 -0.640625 
Q 12.796875 0.140625 7.71875 1.703125 
L 7.71875 11.625 
Q 12.109375 9.234375 16.796875 8.0625 
Q 21.484375 6.890625 26.703125 6.890625 
Q 35.15625 6.890625 40.078125 11.328125 
Q 45.015625 15.765625 45.015625 23.390625 
Q 45.015625 31 40.078125 35.4375 
Q 35.15625 39.890625 26.703125 39.890625 
Q 22.75 39.890625 18.8125 39.015625 
Q 14.890625 38.140625 10.796875 36.28125 
z
" id="DejaVuSans-53"/>
       </defs>
       <use xlink:href="#DejaVuSans-53"/>
      </g>
     </g>
    </g>
    <g id="ytick_3">
     <g id="line2d_8">
      <g>
       <use style="stroke:#000000;stroke-width:0.8;" x="39.765625" xlink:href="#mc5de3d98aa" y="190.740039"/>
      </g>
     </g>
     <g id="text_9">
      <!-- 10 -->
      <g transform="translate(20.040625 194.539258)scale(0.1 -0.1)">
       <use xlink:href="#DejaVuSans-49"/>
       <use x="63.623047" xlink:href="#DejaVuSans-48"/>
      </g>
     </g>
    </g>
    <g id="ytick_4">
     <g id="line2d_9">
      <g>
       <use style="stroke:#000000;stroke-width:0.8;" x="39.765625" xlink:href="#mc5de3d98aa" y="132.303224"/>
      </g>
     </g>
     <g id="text_10">
      <!-- 15 -->
      <g transform="translate(20.040625 136.102442)scale(0.1 -0.1)">
       <use xlink:href="#DejaVuSans-49"/>
       <use x="63.623047" xlink:href="#DejaVuSans-53"/>
      </g>
     </g>
    </g>
    <g id="ytick_5">
     <g id="line2d_10">
      <g>
       <use style="stroke:#000000;stroke-width:0.8;" x="39.765625" xlink:href="#mc5de3d98aa" y="73.866408"/>
      </g>
     </g>
     <g id="text_11">
      <!-- 20 -->
      <g transform="translate(20.040625 77.665627)scale(0.1 -0.1)">
       <use xlink:href="#DejaVuSans-50"/>
       <use x="63.623047" xlink:href="#DejaVuSans-48"/>
      </g>
     </g>
    </g>
    <g id="ytick_6">
     <g id="line2d_11">
      <g>
       <use style="stroke:#000000;stroke-width:0.8;" x="39.765625" xlink:href="#mc5de3d98aa" y="15.429593"/>
      </g>
     </g>
     <g id="text_12">
      <!-- 25 -->
      <g transform="translate(20.040625 19.228812)scale(0.1 -0.1)">
       <use xlink:href="#DejaVuSans-50"/>
       <use x="63.623047" xlink:href="#DejaVuSans-53"/>
      </g>
     </g>
    </g>
    <g id="text_13">
     <!-- Temps (s) -->
     <g transform="translate(13.960938 188.743125)rotate(-90)scale(0.1 -0.1)">
      <defs>
       <path d="M -0.296875 72.90625 
L 61.375 72.90625 
L 61.375 64.59375 
L 35.5 64.59375 
L 35.5 0 
L 25.59375 0 
L 25.59375 64.59375 
L -0.296875 64.59375 
z
" id="DejaVuSans-84"/>
       <path d="M 52 44.1875 
Q 55.375 50.25 60.0625 53.125 
Q 64.75 56 71.09375 56 
Q 79.640625 56 84.28125 50.015625 
Q 88.921875 44.046875 88.921875 33.015625 
L 88.921875 0 
L 79.890625 0 
L 79.890625 32.71875 
Q 79.890625 40.578125 77.09375 44.375 
Q 74.3125 48.1875 68.609375 48.1875 
Q 61.625 48.1875 57.5625 43.546875 
Q 53.515625 38.921875 53.515625 30.90625 
L 53.515625 0 
L 44.484375 0 
L 44.484375 32.71875 
Q 44.484375 40.625 41.703125 44.40625 
Q 38.921875 48.1875 33.109375 48.1875 
Q 26.21875 48.1875 22.15625 43.53125 
Q 18.109375 38.875 18.109375 30.90625 
L 18.109375 0 
L 9.078125 0 
L 9.078125 54.6875 
L 18.109375 54.6875 
L 18.109375 46.1875 
Q 21.1875 51.21875 25.484375 53.609375 
Q 29.78125 56 35.6875 56 
Q 41.65625 56 45.828125 52.96875 
Q 50 49.953125 52 44.1875 
z
" id="DejaVuSans-109"/>
       <path d="M 18.109375 8.203125 
L 18.109375 -20.796875 
L 9.078125 -20.796875 
L 9.078125 54.6875 
L 18.109375 54.6875 
L 18.109375 46.390625 
Q 20.953125 51.265625 25.265625 53.625 
Q 29.59375 56 35.59375 56 
Q 45.5625 56 51.78125 48.09375 
Q 58.015625 40.1875 58.015625 27.296875 
Q 58.015625 14.40625 51.78125 6.484375 
Q 45.5625 -1.421875 35.59375 -1.421875 
Q 29.59375 -1.421875 25.265625 0.953125 
Q 20.953125 3.328125 18.109375 8.203125 
z
M 48.6875 27.296875 
Q 48.6875 37.203125 44.609375 42.84375 
Q 40.53125 48.484375 33.40625 48.484375 
Q 26.265625 48.484375 22.1875 42.84375 
Q 18.109375 37.203125 18.109375 27.296875 
Q 18.109375 17.390625 22.1875 11.75 
Q 26.265625 6.109375 33.40625 6.109375 
Q 40.53125 6.109375 44.609375 11.75 
Q 48.6875 17.390625 48.6875 27.296875 
z
" id="DejaVuSans-112"/>
       <path d="M 44.28125 53.078125 
L 44.28125 44.578125 
Q 40.484375 46.53125 36.375 47.5 
Q 32.28125 48.484375 27.875 48.484375 
Q 21.1875 48.484375 17.84375 46.4375 
Q 14.5 44.390625 14.5 40.28125 
Q 14.5 37.15625 16.890625 35.375 
Q 19.28125 33.59375 26.515625 31.984375 
L 29.59375 31.296875 
Q 39.15625 29.25 43.1875 25.515625 
Q 47.21875 21.78125 47.21875 15.09375 
Q 47.21875 7.46875 41.1875 3.015625 
Q 35.15625 -1.421875 24.609375 -1.421875 
Q 20.21875 -1.421875 15.453125 -0.5625 
Q 10.6875 0.296875 5.421875 2 
L 5.421875 11.28125 
Q 10.40625 8.6875 15.234375 7.390625 
Q 20.0625 6.109375 24.8125 6.109375 
Q 31.15625 6.109375 34.5625 8.28125 
Q 37.984375 10.453125 37.984375 14.40625 
Q 37.984375 18.0625 35.515625 20.015625 
Q 33.0625 21.96875 24.703125 23.78125 
L 21.578125 24.515625 
Q 13.234375 26.265625 9.515625 29.90625 
Q 5.8125 33.546875 5.8125 39.890625 
Q 5.8125 47.609375 11.28125 51.796875 
Q 16.75 56 26.8125 56 
Q 31.78125 56 36.171875 55.265625 
Q 40.578125 54.546875 44.28125 53.078125 
z
" id="DejaVuSans-115"/>
       <path id="DejaVuSans-32"/>
       <path d="M 31 75.875 
Q 24.46875 64.65625 21.28125 53.65625 
Q 18.109375 42.671875 18.109375 31.390625 
Q 18.109375 20.125 21.3125 9.0625 
Q 24.515625 -2 31 -13.1875 
L 23.1875 -13.1875 
Q 15.875 -1.703125 12.234375 9.375 
Q 8.59375 20.453125 8.59375 31.390625 
Q 8.59375 42.28125 12.203125 53.3125 
Q 15.828125 64.359375 23.1875 75.875 
z
" id="DejaVuSans-40"/>
       <path d="M 8.015625 75.875 
L 15.828125 75.875 
Q 23.140625 64.359375 26.78125 53.3125 
Q 30.421875 42.28125 30.421875 31.390625 
Q 30.421875 20.453125 26.78125 9.375 
Q 23.140625 -1.703125 15.828125 -13.1875 
L 8.015625 -13.1875 
Q 14.5 -2 17.703125 9.0625 
Q 20.90625 20.125 20.90625 31.390625 
Q 20.90625 42.671875 17.703125 53.65625 
Q 14.5 64.65625 8.015625 75.875 
z
" id="DejaVuSans-41"/>
      </defs>
      <use xlink:href="#DejaVuSans-84"/>
      <use x="44.083984" xlink:href="#DejaVuSans-101"/>
      <use x="105.607422" xlink:href="#DejaVuSans-109"/>
      <use x="203.019531" xlink:href="#DejaVuSans-112"/>
      <use x="266.496094" xlink:href="#DejaVuSans-115"/>
      <use x="318.595703" xlink:href="#DejaVuSans-32"/>
      <use x="350.382812" xlink:href="#DejaVuSans-40"/>
      <use x="389.396484" xlink:href="#DejaVuSans-115"/>
      <use x="441.496094" xlink:href="#DejaVuSans-41"/>
     </g>
    </g>
   </g>
   <g id="line2d_12">
    <path clip-path="url(#p42603d826e)" d="M 61.728125 29.618052 
L 110.533681 32.645079 
L 159.339236 31.978899 
L 208.144792 30.24917 
L 256.950347 28.718125 
L 305.755903 29.98036 
L 354.561458 58.520901 
L 403.367014 162.152749 
L 452.172569 252.554502 
L 500.978125 300.718125 
" style="fill:none;stroke:#1f77b4;stroke-linecap:square;stroke-width:1.5;"/>
    <defs>
     <path d="M -3 3 
L 3 3 
L 3 -3 
L -3 -3 
z
" id="m98f01f2734" style="stroke:#1f77b4;stroke-linejoin:miter;"/>
    </defs>
    <g clip-path="url(#p42603d826e)">
     <use style="fill:#1f77b4;stroke:#1f77b4;stroke-linejoin:miter;" x="61.728125" xlink:href="#m98f01f2734" y="29.618052"/>
     <use style="fill:#1f77b4;stroke:#1f77b4;stroke-linejoin:miter;" x="110.533681" xlink:href="#m98f01f2734" y="32.645079"/>
     <use style="fill:#1f77b4;stroke:#1f77b4;stroke-linejoin:miter;" x="159.339236" xlink:href="#m98f01f2734" y="31.978899"/>
     <use style="fill:#1f77b4;stroke:#1f77b4;stroke-linejoin:miter;" x="208.144792" xlink:href="#m98f01f2734" y="30.24917"/>
     <use style="fill:#1f77b4;stroke:#1f77b4;stroke-linejoin:miter;" x="256.950347" xlink:href="#m98f01f2734" y="28.718125"/>
     <use style="fill:#1f77b4;stroke:#1f77b4;stroke-linejoin:miter;" x="305.755903" xlink:href="#m98f01f2734" y="29.98036"/>
     <use style="fill:#1f77b4;stroke:#1f77b4;stroke-linejoin:miter;" x="354.561458" xlink:href="#m98f01f2734" y="58.520901"/>
     <use style="fill:#1f77b4;stroke:#1f77b4;stroke-linejoin:miter;" x="403.367014" xlink:href="#m98f01f2734" y="162.152749"/>
     <use style="fill:#1f77b4;stroke:#1f77b4;stroke-linejoin:miter;" x="452.172569" xlink:href="#m98f01f2734" y="252.554502"/>
     <use style="fill:#1f77b4;stroke:#1f77b4;stroke-linejoin:miter;" x="500.978125" xlink:href="#m98f01f2734" y="300.718125"/>
    </g>
   </g>
   <g id="line2d_13">
    <path clip-path="url(#p42603d826e)" style="fill:none;stroke:#ff7f0e;stroke-linecap:square;stroke-width:1.5;"/>
    <defs>
     <path d="M 0 3 
C 0.795609 3 1.55874 2.683901 2.12132 2.12132 
C 2.683901 1.55874 3 0.795609 3 0 
C 3 -0.795609 2.683901 -1.55874 2.12132 -2.12132 
C 1.55874 -2.683901 0.795609 -3 0 -3 
C -0.795609 -3 -1.55874 -2.683901 -2.12132 -2.12132 
C -2.683901 -1.55874 -3 -0.795609 -3 0 
C -3 0.795609 -2.683901 1.55874 -2.12132 2.12132 
C -1.55874 2.683901 -0.795609 3 0 3 
z
" id="m14a2c78175" style="stroke:#ff7f0e;"/>
    </defs>
    <g clip-path="url(#p42603d826e)">
     <use style="fill:#ff7f0e;stroke:#ff7f0e;" x="0" xlink:href="#m14a2c78175" y="0"/>
    </g>
   </g>
   <g id="line2d_14">
    <path clip-path="url(#p42603d826e)" d="M 61.728125 221.16505 
L 110.533681 220.934575 
L 159.339236 220.372062 
L 208.144792 218.968293 
L 256.950347 219.822172 
L 305.755903 221.301324 
L 354.561458 227.138929 
L 403.367014 249.849111 
L 452.172569 276.177117 
L 500.978125 295.524845 
" style="fill:none;stroke:#2ca02c;stroke-linecap:square;stroke-width:1.5;"/>
    <defs>
     <path d="M -3 0 
L 3 0 
M 0 3 
L 0 -3 
" id="m7178ea0680" style="stroke:#2ca02c;"/>
    </defs>
    <g clip-path="url(#p42603d826e)">
     <use style="fill:#2ca02c;stroke:#2ca02c;" x="61.728125" xlink:href="#m7178ea0680" y="221.16505"/>
     <use style="fill:#2ca02c;stroke:#2ca02c;" x="110.533681" xlink:href="#m7178ea0680" y="220.934575"/>
     <use style="fill:#2ca02c;stroke:#2ca02c;" x="159.339236" xlink:href="#m7178ea0680" y="220.372062"/>
     <use style="fill:#2ca02c;stroke:#2ca02c;" x="208.144792" xlink:href="#m7178ea0680" y="218.968293"/>
     <use style="fill:#2ca02c;stroke:#2ca02c;" x="256.950347" xlink:href="#m7178ea0680" y="219.822172"/>
     <use style="fill:#2ca02c;stroke:#2ca02c;" x="305.755903" xlink:href="#m7178ea0680" y="221.301324"/>
     <use style="fill:#2ca02c;stroke:#2ca02c;" x="354.561458" xlink:href="#m7178ea0680" y="227.138929"/>
     <use style="fill:#2ca02c;stroke:#2ca02c;" x="403.367014" xlink:href="#m7178ea0680" y="249.849111"/>
     <use style="fill:#2ca02c;stroke:#2ca02c;" x="452.172569" xlink:href="#m7178ea0680" y="276.177117"/>
     <use style="fill:#2ca02c;stroke:#2ca02c;" x="500.978125" xlink:href="#m7178ea0680" y="295.524845"/>
    </g>
   </g>
   <g id="line2d_15">
    <path clip-path="url(#p42603d826e)" style="fill:none;stroke:#d62728;stroke-linecap:square;stroke-width:1.5;"/>
    <defs>
     <path d="M 0 -3 
L -3 3 
L 3 3 
z
" id="ma387d66e10" style="stroke:#d62728;stroke-linejoin:miter;"/>
    </defs>
    <g clip-path="url(#p42603d826e)">
     <use style="fill:#d62728;stroke:#d62728;stroke-linejoin:miter;" x="0" xlink:href="#ma387d66e10" y="0"/>
    </g>
   </g>
   <g id="patch_3">
    <path d="M 39.765625 314.318125 
L 39.765625 15.118125 
" style="fill:none;stroke:#000000;stroke-linecap:square;stroke-linejoin:miter;stroke-width:0.8;"/>
   </g>
   <g id="patch_4">
    <path d="M 522.940625 314.318125 
L 522.940625 15.118125 
" style="fill:none;stroke:#000000;stroke-linecap:square;stroke-linejoin:miter;stroke-width:0.8;"/>
   </g>
   <g id="patch_5">
    <path d="M 39.765625 314.318125 
L 522.940625 314.318125 
" style="fill:none;stroke:#000000;stroke-linecap:square;stroke-linejoin:miter;stroke-width:0.8;"/>
   </g>
   <g id="patch_6">
    <path d="M 39.765625 15.118125 
L 522.940625 15.118125 
" style="fill:none;stroke:#000000;stroke-linecap:square;stroke-linejoin:miter;stroke-width:0.8;"/>
   </g>
   <g id="text_14">
    <!-- Dataset: Anneal, Support=60% -->
    <g transform="translate(187.287188 9.118125)scale(0.12 -0.12)">
     <defs>
      <path d="M 19.671875 64.796875 
L 19.671875 8.109375 
L 31.59375 8.109375 
Q 46.6875 8.109375 53.6875 14.9375 
Q 60.6875 21.78125 60.6875 36.53125 
Q 60.6875 51.171875 53.6875 57.984375 
Q 46.6875 64.796875 31.59375 64.796875 
z
M 9.8125 72.90625 
L 30.078125 72.90625 
Q 51.265625 72.90625 61.171875 64.09375 
Q 71.09375 55.28125 71.09375 36.53125 
Q 71.09375 17.671875 61.125 8.828125 
Q 51.171875 0 30.078125 0 
L 9.8125 0 
z
" id="DejaVuSans-68"/>
      <path d="M 18.3125 70.21875 
L 18.3125 54.6875 
L 36.8125 54.6875 
L 36.8125 47.703125 
L 18.3125 47.703125 
L 18.3125 18.015625 
Q 18.3125 11.328125 20.140625 9.421875 
Q 21.96875 7.515625 27.59375 7.515625 
L 36.8125 7.515625 
L 36.8125 0 
L 27.59375 0 
Q 17.1875 0 13.234375 3.875 
Q 9.28125 7.765625 9.28125 18.015625 
L 9.28125 47.703125 
L 2.6875 47.703125 
L 2.6875 54.6875 
L 9.28125 54.6875 
L 9.28125 70.21875 
z
" id="DejaVuSans-116"/>
      <path d="M 11.71875 12.40625 
L 22.015625 12.40625 
L 22.015625 0 
L 11.71875 0 
z
M 11.71875 51.703125 
L 22.015625 51.703125 
L 22.015625 39.3125 
L 11.71875 39.3125 
z
" id="DejaVuSans-58"/>
      <path d="M 34.1875 63.1875 
L 20.796875 26.90625 
L 47.609375 26.90625 
z
M 28.609375 72.90625 
L 39.796875 72.90625 
L 67.578125 0 
L 57.328125 0 
L 50.6875 18.703125 
L 17.828125 18.703125 
L 11.1875 0 
L 0.78125 0 
z
" id="DejaVuSans-65"/>
      <path d="M 9.421875 75.984375 
L 18.40625 75.984375 
L 18.40625 0 
L 9.421875 0 
z
" id="DejaVuSans-108"/>
      <path d="M 11.71875 12.40625 
L 22.015625 12.40625 
L 22.015625 4 
L 14.015625 -11.625 
L 7.71875 -11.625 
L 11.71875 4 
z
" id="DejaVuSans-44"/>
      <path d="M 53.515625 70.515625 
L 53.515625 60.890625 
Q 47.90625 63.578125 42.921875 64.890625 
Q 37.9375 66.21875 33.296875 66.21875 
Q 25.25 66.21875 20.875 63.09375 
Q 16.5 59.96875 16.5 54.203125 
Q 16.5 49.359375 19.40625 46.890625 
Q 22.3125 44.4375 30.421875 42.921875 
L 36.375 41.703125 
Q 47.40625 39.59375 52.65625 34.296875 
Q 57.90625 29 57.90625 20.125 
Q 57.90625 9.515625 50.796875 4.046875 
Q 43.703125 -1.421875 29.984375 -1.421875 
Q 24.8125 -1.421875 18.96875 -0.25 
Q 13.140625 0.921875 6.890625 3.21875 
L 6.890625 13.375 
Q 12.890625 10.015625 18.65625 8.296875 
Q 24.421875 6.59375 29.984375 6.59375 
Q 38.421875 6.59375 43.015625 9.90625 
Q 47.609375 13.234375 47.609375 19.390625 
Q 47.609375 24.75 44.3125 27.78125 
Q 41.015625 30.8125 33.5 32.328125 
L 27.484375 33.5 
Q 16.453125 35.6875 11.515625 40.375 
Q 6.59375 45.0625 6.59375 53.421875 
Q 6.59375 63.09375 13.40625 68.65625 
Q 20.21875 74.21875 32.171875 74.21875 
Q 37.3125 74.21875 42.625 73.28125 
Q 47.953125 72.359375 53.515625 70.515625 
z
" id="DejaVuSans-83"/>
      <path d="M 8.5 21.578125 
L 8.5 54.6875 
L 17.484375 54.6875 
L 17.484375 21.921875 
Q 17.484375 14.15625 20.5 10.265625 
Q 23.53125 6.390625 29.59375 6.390625 
Q 36.859375 6.390625 41.078125 11.03125 
Q 45.3125 15.671875 45.3125 23.6875 
L 45.3125 54.6875 
L 54.296875 54.6875 
L 54.296875 0 
L 45.3125 0 
L 45.3125 8.40625 
Q 42.046875 3.421875 37.71875 1 
Q 33.40625 -1.421875 27.6875 -1.421875 
Q 18.265625 -1.421875 13.375 4.4375 
Q 8.5 10.296875 8.5 21.578125 
z
M 31.109375 56 
z
" id="DejaVuSans-117"/>
      <path d="M 41.109375 46.296875 
Q 39.59375 47.171875 37.8125 47.578125 
Q 36.03125 48 33.890625 48 
Q 26.265625 48 22.1875 43.046875 
Q 18.109375 38.09375 18.109375 28.8125 
L 18.109375 0 
L 9.078125 0 
L 9.078125 54.6875 
L 18.109375 54.6875 
L 18.109375 46.1875 
Q 20.953125 51.171875 25.484375 53.578125 
Q 30.03125 56 36.53125 56 
Q 37.453125 56 38.578125 55.875 
Q 39.703125 55.765625 41.0625 55.515625 
z
" id="DejaVuSans-114"/>
      <path d="M 10.59375 45.40625 
L 73.1875 45.40625 
L 73.1875 37.203125 
L 10.59375 37.203125 
z
M 10.59375 25.484375 
L 73.1875 25.484375 
L 73.1875 17.1875 
L 10.59375 17.1875 
z
" id="DejaVuSans-61"/>
      <path d="M 72.703125 32.078125 
Q 68.453125 32.078125 66.03125 28.46875 
Q 63.625 24.859375 63.625 18.40625 
Q 63.625 12.0625 66.03125 8.421875 
Q 68.453125 4.78125 72.703125 4.78125 
Q 76.859375 4.78125 79.265625 8.421875 
Q 81.6875 12.0625 81.6875 18.40625 
Q 81.6875 24.8125 79.265625 28.4375 
Q 76.859375 32.078125 72.703125 32.078125 
z
M 72.703125 38.28125 
Q 80.421875 38.28125 84.953125 32.90625 
Q 89.5 27.546875 89.5 18.40625 
Q 89.5 9.28125 84.9375 3.921875 
Q 80.375 -1.421875 72.703125 -1.421875 
Q 64.890625 -1.421875 60.34375 3.921875 
Q 55.8125 9.28125 55.8125 18.40625 
Q 55.8125 27.59375 60.375 32.9375 
Q 64.9375 38.28125 72.703125 38.28125 
z
M 22.3125 68.015625 
Q 18.109375 68.015625 15.6875 64.375 
Q 13.28125 60.75 13.28125 54.390625 
Q 13.28125 47.953125 15.671875 44.328125 
Q 18.0625 40.71875 22.3125 40.71875 
Q 26.5625 40.71875 28.96875 44.328125 
Q 31.390625 47.953125 31.390625 54.390625 
Q 31.390625 60.6875 28.953125 64.34375 
Q 26.515625 68.015625 22.3125 68.015625 
z
M 66.40625 74.21875 
L 74.21875 74.21875 
L 28.609375 -1.421875 
L 20.796875 -1.421875 
z
M 22.3125 74.21875 
Q 30.03125 74.21875 34.609375 68.875 
Q 39.203125 63.53125 39.203125 54.390625 
Q 39.203125 45.171875 34.640625 39.84375 
Q 30.078125 34.515625 22.3125 34.515625 
Q 14.546875 34.515625 10.03125 39.859375 
Q 5.515625 45.21875 5.515625 54.390625 
Q 5.515625 63.484375 10.046875 68.84375 
Q 14.59375 74.21875 22.3125 74.21875 
z
" id="DejaVuSans-37"/>
     </defs>
     <use xlink:href="#DejaVuSans-68"/>
     <use x="77.001953" xlink:href="#DejaVuSans-97"/>
     <use x="138.28125" xlink:href="#DejaVuSans-116"/>
     <use x="177.490234" xlink:href="#DejaVuSans-97"/>
     <use x="238.769531" xlink:href="#DejaVuSans-115"/>
     <use x="290.869141" xlink:href="#DejaVuSans-101"/>
     <use x="352.392578" xlink:href="#DejaVuSans-116"/>
     <use x="391.601562" xlink:href="#DejaVuSans-58"/>
     <use x="425.292969" xlink:href="#DejaVuSans-32"/>
     <use x="457.080078" xlink:href="#DejaVuSans-65"/>
     <use x="525.488281" xlink:href="#DejaVuSans-110"/>
     <use x="588.867188" xlink:href="#DejaVuSans-110"/>
     <use x="652.246094" xlink:href="#DejaVuSans-101"/>
     <use x="713.769531" xlink:href="#DejaVuSans-97"/>
     <use x="775.048828" xlink:href="#DejaVuSans-108"/>
     <use x="802.832031" xlink:href="#DejaVuSans-44"/>
     <use x="834.619141" xlink:href="#DejaVuSans-32"/>
     <use x="866.40625" xlink:href="#DejaVuSans-83"/>
     <use x="929.882812" xlink:href="#DejaVuSans-117"/>
     <use x="993.261719" xlink:href="#DejaVuSans-112"/>
     <use x="1056.738281" xlink:href="#DejaVuSans-112"/>
     <use x="1120.214844" xlink:href="#DejaVuSans-111"/>
     <use x="1181.396484" xlink:href="#DejaVuSans-114"/>
     <use x="1222.509766" xlink:href="#DejaVuSans-116"/>
     <use x="1261.71875" xlink:href="#DejaVuSans-61"/>
     <use x="1345.507812" xlink:href="#DejaVuSans-54"/>
     <use x="1409.130859" xlink:href="#DejaVuSans-48"/>
     <use x="1472.753906" xlink:href="#DejaVuSans-37"/>
    </g>
   </g>
   <g id="legend_1">
    <g id="patch_7">
     <path d="M 398.189063 82.230625 
L 515.940625 82.230625 
Q 517.940625 82.230625 517.940625 80.230625 
L 517.940625 22.118125 
Q 517.940625 20.118125 515.940625 20.118125 
L 398.189063 20.118125 
Q 396.189063 20.118125 396.189063 22.118125 
L 396.189063 80.230625 
Q 396.189063 82.230625 398.189063 82.230625 
z
" style="fill:#ffffff;opacity:0.8;stroke:#cccccc;stroke-linejoin:miter;"/>
    </g>
    <g id="line2d_16">
     <path d="M 400.189063 28.216562 
L 420.189063 28.216562 
" style="fill:none;stroke:#1f77b4;stroke-linecap:square;stroke-width:1.5;"/>
    </g>
    <g id="line2d_17">
     <g>
      <use style="fill:#1f77b4;stroke:#1f77b4;stroke-linejoin:miter;" x="410.189063" xlink:href="#m98f01f2734" y="28.216562"/>
     </g>
    </g>
    <g id="text_15">
     <!-- CP4AR -->
     <g transform="translate(428.189063 31.716562)scale(0.1 -0.1)">
      <defs>
       <path d="M 19.671875 64.796875 
L 19.671875 37.40625 
L 32.078125 37.40625 
Q 38.96875 37.40625 42.71875 40.96875 
Q 46.484375 44.53125 46.484375 51.125 
Q 46.484375 57.671875 42.71875 61.234375 
Q 38.96875 64.796875 32.078125 64.796875 
z
M 9.8125 72.90625 
L 32.078125 72.90625 
Q 44.34375 72.90625 50.609375 67.359375 
Q 56.890625 61.8125 56.890625 51.125 
Q 56.890625 40.328125 50.609375 34.8125 
Q 44.34375 29.296875 32.078125 29.296875 
L 19.671875 29.296875 
L 19.671875 0 
L 9.8125 0 
z
" id="DejaVuSans-80"/>
       <path d="M 44.390625 34.1875 
Q 47.5625 33.109375 50.5625 29.59375 
Q 53.5625 26.078125 56.59375 19.921875 
L 66.609375 0 
L 56 0 
L 46.6875 18.703125 
Q 43.0625 26.03125 39.671875 28.421875 
Q 36.28125 30.8125 30.421875 30.8125 
L 19.671875 30.8125 
L 19.671875 0 
L 9.8125 0 
L 9.8125 72.90625 
L 32.078125 72.90625 
Q 44.578125 72.90625 50.734375 67.671875 
Q 56.890625 62.453125 56.890625 51.90625 
Q 56.890625 45.015625 53.6875 40.46875 
Q 50.484375 35.9375 44.390625 34.1875 
z
M 19.671875 64.796875 
L 19.671875 38.921875 
L 32.078125 38.921875 
Q 39.203125 38.921875 42.84375 42.21875 
Q 46.484375 45.515625 46.484375 51.90625 
Q 46.484375 58.296875 42.84375 61.546875 
Q 39.203125 64.796875 32.078125 64.796875 
z
" id="DejaVuSans-82"/>
      </defs>
      <use xlink:href="#DejaVuSans-67"/>
      <use x="69.824219" xlink:href="#DejaVuSans-80"/>
      <use x="130.126953" xlink:href="#DejaVuSans-52"/>
      <use x="193.75" xlink:href="#DejaVuSans-65"/>
      <use x="262.158203" xlink:href="#DejaVuSans-82"/>
     </g>
    </g>
    <g id="line2d_18">
     <path d="M 400.189063 42.894687 
L 420.189063 42.894687 
" style="fill:none;stroke:#ff7f0e;stroke-linecap:square;stroke-width:1.5;"/>
    </g>
    <g id="line2d_19">
     <g>
      <use style="fill:#ff7f0e;stroke:#ff7f0e;" x="410.189063" xlink:href="#m14a2c78175" y="42.894687"/>
     </g>
    </g>
    <g id="text_16">
     <!-- MNR (SPMF) -->
     <g transform="translate(428.189063 46.394687)scale(0.1 -0.1)">
      <defs>
       <path d="M 9.8125 72.90625 
L 24.515625 72.90625 
L 43.109375 23.296875 
L 61.8125 72.90625 
L 76.515625 72.90625 
L 76.515625 0 
L 66.890625 0 
L 66.890625 64.015625 
L 48.09375 14.015625 
L 38.1875 14.015625 
L 19.390625 64.015625 
L 19.390625 0 
L 9.8125 0 
z
" id="DejaVuSans-77"/>
       <path d="M 9.8125 72.90625 
L 23.09375 72.90625 
L 55.421875 11.921875 
L 55.421875 72.90625 
L 64.984375 72.90625 
L 64.984375 0 
L 51.703125 0 
L 19.390625 60.984375 
L 19.390625 0 
L 9.8125 0 
z
" id="DejaVuSans-78"/>
       <path d="M 9.8125 72.90625 
L 51.703125 72.90625 
L 51.703125 64.59375 
L 19.671875 64.59375 
L 19.671875 43.109375 
L 48.578125 43.109375 
L 48.578125 34.8125 
L 19.671875 34.8125 
L 19.671875 0 
L 9.8125 0 
z
" id="DejaVuSans-70"/>
      </defs>
      <use xlink:href="#DejaVuSans-77"/>
      <use x="86.279297" xlink:href="#DejaVuSans-78"/>
      <use x="161.083984" xlink:href="#DejaVuSans-82"/>
      <use x="230.566406" xlink:href="#DejaVuSans-32"/>
      <use x="262.353516" xlink:href="#DejaVuSans-40"/>
      <use x="301.367188" xlink:href="#DejaVuSans-83"/>
      <use x="364.84375" xlink:href="#DejaVuSans-80"/>
      <use x="425.146484" xlink:href="#DejaVuSans-77"/>
      <use x="511.425781" xlink:href="#DejaVuSans-70"/>
      <use x="568.945312" xlink:href="#DejaVuSans-41"/>
     </g>
    </g>
    <g id="line2d_20">
     <path d="M 400.189063 57.972812 
L 420.189063 57.972812 
" style="fill:none;stroke:#2ca02c;stroke-linecap:square;stroke-width:1.5;"/>
    </g>
    <g id="line2d_21">
     <g>
      <use style="fill:#2ca02c;stroke:#2ca02c;" x="410.189063" xlink:href="#m7178ea0680" y="57.972812"/>
     </g>
    </g>
    <g id="text_17">
     <!-- SATAR (optimisé) -->
     <g transform="translate(428.189063 61.472812)scale(0.1 -0.1)">
      <defs>
       <path d="M 56.203125 29.59375 
L 56.203125 25.203125 
L 14.890625 25.203125 
Q 15.484375 15.921875 20.484375 11.0625 
Q 25.484375 6.203125 34.421875 6.203125 
Q 39.59375 6.203125 44.453125 7.46875 
Q 49.3125 8.734375 54.109375 11.28125 
L 54.109375 2.78125 
Q 49.265625 0.734375 44.1875 -0.34375 
Q 39.109375 -1.421875 33.890625 -1.421875 
Q 20.796875 -1.421875 13.15625 6.1875 
Q 5.515625 13.8125 5.515625 26.8125 
Q 5.515625 40.234375 12.765625 48.109375 
Q 20.015625 56 32.328125 56 
Q 43.359375 56 49.78125 48.890625 
Q 56.203125 41.796875 56.203125 29.59375 
z
M 47.21875 32.234375 
Q 47.125 39.59375 43.09375 43.984375 
Q 39.0625 48.390625 32.421875 48.390625 
Q 24.90625 48.390625 20.390625 44.140625 
Q 15.875 39.890625 15.1875 32.171875 
z
M 38.578125 79.984375 
L 48.296875 79.984375 
L 32.375 61.625 
L 24.90625 61.625 
z
" id="DejaVuSans-233"/>
      </defs>
      <use xlink:href="#DejaVuSans-83"/>
      <use x="65.351562" xlink:href="#DejaVuSans-65"/>
      <use x="126.009766" xlink:href="#DejaVuSans-84"/>
      <use x="179.34375" xlink:href="#DejaVuSans-65"/>
      <use x="247.751953" xlink:href="#DejaVuSans-82"/>
      <use x="317.234375" xlink:href="#DejaVuSans-32"/>
      <use x="349.021484" xlink:href="#DejaVuSans-40"/>
      <use x="388.035156" xlink:href="#DejaVuSans-111"/>
      <use x="449.216797" xlink:href="#DejaVuSans-112"/>
      <use x="512.693359" xlink:href="#DejaVuSans-116"/>
      <use x="551.902344" xlink:href="#DejaVuSans-105"/>
      <use x="579.685547" xlink:href="#DejaVuSans-109"/>
      <use x="677.097656" xlink:href="#DejaVuSans-105"/>
      <use x="704.880859" xlink:href="#DejaVuSans-115"/>
      <use x="756.980469" xlink:href="#DejaVuSans-233"/>
      <use x="818.503906" xlink:href="#DejaVuSans-41"/>
     </g>
    </g>
    <g id="line2d_22">
     <path d="M 400.189063 72.650937 
L 420.189063 72.650937 
" style="fill:none;stroke:#d62728;stroke-linecap:square;stroke-width:1.5;"/>
    </g>
    <g id="line2d_23">
     <g>
      <use style="fill:#d62728;stroke:#d62728;stroke-linejoin:miter;" x="410.189063" xlink:href="#ma387d66e10" y="72.650937"/>
     </g>
    </g>
    <g id="text_18">
     <!-- SATAR -->
     <g transform="translate(428.189063 76.150937)scale(0.1 -0.1)">
      <use xlink:href="#DejaVuSans-83"/>
      <use x="65.351562" xlink:href="#DejaVuSans-65"/>
      <use x="126.009766" xlink:href="#DejaVuSans-84"/>
      <use x="179.34375" xlink:href="#DejaVuSans-65"/>
      <use x="247.751953" xlink:href="#DejaVuSans-82"/>
     </g>
    </g>
   </g>
  </g>
  <g id="axes_2">
   <g id="patch_8">
    <path d="M 576.340625 314.318125 
L 1059.515625 314.318125 
L 1059.515625 15.118125 
L 576.340625 15.118125 
z
" style="fill:#ffffff;"/>
   </g>
   <g id="matplotlib.axis_3">
    <g id="xtick_6">
     <g id="line2d_24">
      <g>
       <use style="stroke:#000000;stroke-width:0.8;" x="647.108681" xlink:href="#m62710466ec" y="314.318125"/>
      </g>
     </g>
     <g id="text_19">
      <!-- 20 -->
      <g transform="translate(640.746181 328.916562)scale(0.1 -0.1)">
       <use xlink:href="#DejaVuSans-50"/>
       <use x="63.623047" xlink:href="#DejaVuSans-48"/>
      </g>
     </g>
    </g>
    <g id="xtick_7">
     <g id="line2d_25">
      <g>
       <use style="stroke:#000000;stroke-width:0.8;" x="744.719792" xlink:href="#m62710466ec" y="314.318125"/>
      </g>
     </g>
     <g id="text_20">
      <!-- 40 -->
      <g transform="translate(738.357292 328.916562)scale(0.1 -0.1)">
       <use xlink:href="#DejaVuSans-52"/>
       <use x="63.623047" xlink:href="#DejaVuSans-48"/>
      </g>
     </g>
    </g>
    <g id="xtick_8">
     <g id="line2d_26">
      <g>
       <use style="stroke:#000000;stroke-width:0.8;" x="842.330903" xlink:href="#m62710466ec" y="314.318125"/>
      </g>
     </g>
     <g id="text_21">
      <!-- 60 -->
      <g transform="translate(835.968403 328.916562)scale(0.1 -0.1)">
       <use xlink:href="#DejaVuSans-54"/>
       <use x="63.623047" xlink:href="#DejaVuSans-48"/>
      </g>
     </g>
    </g>
    <g id="xtick_9">
     <g id="line2d_27">
      <g>
       <use style="stroke:#000000;stroke-width:0.8;" x="939.942014" xlink:href="#m62710466ec" y="314.318125"/>
      </g>
     </g>
     <g id="text_22">
      <!-- 80 -->
      <g transform="translate(933.579514 328.916562)scale(0.1 -0.1)">
       <use xlink:href="#DejaVuSans-56"/>
       <use x="63.623047" xlink:href="#DejaVuSans-48"/>
      </g>
     </g>
    </g>
    <g id="xtick_10">
     <g id="line2d_28">
      <g>
       <use style="stroke:#000000;stroke-width:0.8;" x="1037.553125" xlink:href="#m62710466ec" y="314.318125"/>
      </g>
     </g>
     <g id="text_23">
      <!-- 100 -->
      <g transform="translate(1028.009375 328.916562)scale(0.1 -0.1)">
       <use xlink:href="#DejaVuSans-49"/>
       <use x="63.623047" xlink:href="#DejaVuSans-48"/>
       <use x="127.246094" xlink:href="#DejaVuSans-48"/>
      </g>
     </g>
    </g>
    <g id="text_24">
     <!-- Confiance -->
     <g transform="translate(793.000781 342.594688)scale(0.1 -0.1)">
      <use xlink:href="#DejaVuSans-67"/>
      <use x="69.824219" xlink:href="#DejaVuSans-111"/>
      <use x="131.005859" xlink:href="#DejaVuSans-110"/>
      <use x="194.384766" xlink:href="#DejaVuSans-102"/>
      <use x="229.589844" xlink:href="#DejaVuSans-105"/>
      <use x="257.373047" xlink:href="#DejaVuSans-97"/>
      <use x="318.652344" xlink:href="#DejaVuSans-110"/>
      <use x="382.03125" xlink:href="#DejaVuSans-99"/>
      <use x="437.011719" xlink:href="#DejaVuSans-101"/>
     </g>
    </g>
   </g>
   <g id="matplotlib.axis_4">
    <g id="ytick_7">
     <g id="line2d_29">
      <g>
       <use style="stroke:#000000;stroke-width:0.8;" x="576.340625" xlink:href="#mc5de3d98aa" y="308.019051"/>
      </g>
     </g>
     <g id="text_25">
      <!-- 0 -->
      <g transform="translate(562.978125 311.81827)scale(0.1 -0.1)">
       <use xlink:href="#DejaVuSans-48"/>
      </g>
     </g>
    </g>
    <g id="ytick_8">
     <g id="line2d_30">
      <g>
       <use style="stroke:#000000;stroke-width:0.8;" x="576.340625" xlink:href="#mc5de3d98aa" y="263.836353"/>
      </g>
     </g>
     <g id="text_26">
      <!-- 10 -->
      <g transform="translate(556.615625 267.635571)scale(0.1 -0.1)">
       <use xlink:href="#DejaVuSans-49"/>
       <use x="63.623047" xlink:href="#DejaVuSans-48"/>
      </g>
     </g>
    </g>
    <g id="ytick_9">
     <g id="line2d_31">
      <g>
       <use style="stroke:#000000;stroke-width:0.8;" x="576.340625" xlink:href="#mc5de3d98aa" y="219.653655"/>
      </g>
     </g>
     <g id="text_27">
      <!-- 20 -->
      <g transform="translate(556.615625 223.452873)scale(0.1 -0.1)">
       <use xlink:href="#DejaVuSans-50"/>
       <use x="63.623047" xlink:href="#DejaVuSans-48"/>
      </g>
     </g>
    </g>
    <g id="ytick_10">
     <g id="line2d_32">
      <g>
       <use style="stroke:#000000;stroke-width:0.8;" x="576.340625" xlink:href="#mc5de3d98aa" y="175.470957"/>
      </g>
     </g>
     <g id="text_28">
      <!-- 30 -->
      <g transform="translate(556.615625 179.270175)scale(0.1 -0.1)">
       <defs>
        <path d="M 40.578125 39.3125 
Q 47.65625 37.796875 51.625 33 
Q 55.609375 28.21875 55.609375 21.1875 
Q 55.609375 10.40625 48.1875 4.484375 
Q 40.765625 -1.421875 27.09375 -1.421875 
Q 22.515625 -1.421875 17.65625 -0.515625 
Q 12.796875 0.390625 7.625 2.203125 
L 7.625 11.71875 
Q 11.71875 9.328125 16.59375 8.109375 
Q 21.484375 6.890625 26.8125 6.890625 
Q 36.078125 6.890625 40.9375 10.546875 
Q 45.796875 14.203125 45.796875 21.1875 
Q 45.796875 27.640625 41.28125 31.265625 
Q 36.765625 34.90625 28.71875 34.90625 
L 20.21875 34.90625 
L 20.21875 43.015625 
L 29.109375 43.015625 
Q 36.375 43.015625 40.234375 45.921875 
Q 44.09375 48.828125 44.09375 54.296875 
Q 44.09375 59.90625 40.109375 62.90625 
Q 36.140625 65.921875 28.71875 65.921875 
Q 24.65625 65.921875 20.015625 65.03125 
Q 15.375 64.15625 9.8125 62.3125 
L 9.8125 71.09375 
Q 15.4375 72.65625 20.34375 73.4375 
Q 25.25 74.21875 29.59375 74.21875 
Q 40.828125 74.21875 47.359375 69.109375 
Q 53.90625 64.015625 53.90625 55.328125 
Q 53.90625 49.265625 50.4375 45.09375 
Q 46.96875 40.921875 40.578125 39.3125 
z
" id="DejaVuSans-51"/>
       </defs>
       <use xlink:href="#DejaVuSans-51"/>
       <use x="63.623047" xlink:href="#DejaVuSans-48"/>
      </g>
     </g>
    </g>
    <g id="ytick_11">
     <g id="line2d_33">
      <g>
       <use style="stroke:#000000;stroke-width:0.8;" x="576.340625" xlink:href="#mc5de3d98aa" y="131.288259"/>
      </g>
     </g>
     <g id="text_29">
      <!-- 40 -->
      <g transform="translate(556.615625 135.087477)scale(0.1 -0.1)">
       <use xlink:href="#DejaVuSans-52"/>
       <use x="63.623047" xlink:href="#DejaVuSans-48"/>
      </g>
     </g>
    </g>
    <g id="ytick_12">
     <g id="line2d_34">
      <g>
       <use style="stroke:#000000;stroke-width:0.8;" x="576.340625" xlink:href="#mc5de3d98aa" y="87.10556"/>
      </g>
     </g>
     <g id="text_30">
      <!-- 50 -->
      <g transform="translate(556.615625 90.904779)scale(0.1 -0.1)">
       <use xlink:href="#DejaVuSans-53"/>
       <use x="63.623047" xlink:href="#DejaVuSans-48"/>
      </g>
     </g>
    </g>
    <g id="ytick_13">
     <g id="line2d_35">
      <g>
       <use style="stroke:#000000;stroke-width:0.8;" x="576.340625" xlink:href="#mc5de3d98aa" y="42.922862"/>
      </g>
     </g>
     <g id="text_31">
      <!-- 60 -->
      <g transform="translate(556.615625 46.722081)scale(0.1 -0.1)">
       <use xlink:href="#DejaVuSans-54"/>
       <use x="63.623047" xlink:href="#DejaVuSans-48"/>
      </g>
     </g>
    </g>
    <g id="text_32">
     <!-- Temps (s) -->
     <g transform="translate(550.535938 188.743125)rotate(-90)scale(0.1 -0.1)">
      <use xlink:href="#DejaVuSans-84"/>
      <use x="44.083984" xlink:href="#DejaVuSans-101"/>
      <use x="105.607422" xlink:href="#DejaVuSans-109"/>
      <use x="203.019531" xlink:href="#DejaVuSans-112"/>
      <use x="266.496094" xlink:href="#DejaVuSans-115"/>
      <use x="318.595703" xlink:href="#DejaVuSans-32"/>
      <use x="350.382812" xlink:href="#DejaVuSans-40"/>
      <use x="389.396484" xlink:href="#DejaVuSans-115"/>
      <use x="441.496094" xlink:href="#DejaVuSans-41"/>
     </g>
    </g>
   </g>
   <g id="line2d_36">
    <path clip-path="url(#p4c07a800b4)" d="M 598.303125 29.610616 
L 647.108681 29.296918 
L 695.914236 30.123135 
L 744.719792 28.718125 
L 793.525347 31.232121 
L 842.330903 30.31312 
L 891.136458 44.345545 
L 939.942014 131.964254 
L 988.747569 239.650744 
L 1037.553125 298.148636 
" style="fill:none;stroke:#1f77b4;stroke-linecap:square;stroke-width:1.5;"/>
    <g clip-path="url(#p4c07a800b4)">
     <use style="fill:#1f77b4;stroke:#1f77b4;stroke-linejoin:miter;" x="598.303125" xlink:href="#m98f01f2734" y="29.610616"/>
     <use style="fill:#1f77b4;stroke:#1f77b4;stroke-linejoin:miter;" x="647.108681" xlink:href="#m98f01f2734" y="29.296918"/>
     <use style="fill:#1f77b4;stroke:#1f77b4;stroke-linejoin:miter;" x="695.914236" xlink:href="#m98f01f2734" y="30.123135"/>
     <use style="fill:#1f77b4;stroke:#1f77b4;stroke-linejoin:miter;" x="744.719792" xlink:href="#m98f01f2734" y="28.718125"/>
     <use style="fill:#1f77b4;stroke:#1f77b4;stroke-linejoin:miter;" x="793.525347" xlink:href="#m98f01f2734" y="31.232121"/>
     <use style="fill:#1f77b4;stroke:#1f77b4;stroke-linejoin:miter;" x="842.330903" xlink:href="#m98f01f2734" y="30.31312"/>
     <use style="fill:#1f77b4;stroke:#1f77b4;stroke-linejoin:miter;" x="891.136458" xlink:href="#m98f01f2734" y="44.345545"/>
     <use style="fill:#1f77b4;stroke:#1f77b4;stroke-linejoin:miter;" x="939.942014" xlink:href="#m98f01f2734" y="131.964254"/>
     <use style="fill:#1f77b4;stroke:#1f77b4;stroke-linejoin:miter;" x="988.747569" xlink:href="#m98f01f2734" y="239.650744"/>
     <use style="fill:#1f77b4;stroke:#1f77b4;stroke-linejoin:miter;" x="1037.553125" xlink:href="#m98f01f2734" y="298.148636"/>
    </g>
   </g>
   <g id="line2d_37">
    <path clip-path="url(#p4c07a800b4)" style="fill:none;stroke:#ff7f0e;stroke-linecap:square;stroke-width:1.5;"/>
    <g clip-path="url(#p4c07a800b4)">
     <use style="fill:#ff7f0e;stroke:#ff7f0e;" x="0" xlink:href="#m14a2c78175" y="0"/>
    </g>
   </g>
   <g id="line2d_38">
    <path clip-path="url(#p4c07a800b4)" d="M 598.303125 261.941357 
L 647.108681 261.44872 
L 695.914236 262.070812 
L 744.719792 262.000562 
L 793.525347 261.336937 
L 842.330903 261.737233 
L 891.136458 264.573497 
L 939.942014 276.340719 
L 988.747569 291.062968 
L 1037.553125 300.718125 
" style="fill:none;stroke:#2ca02c;stroke-linecap:square;stroke-width:1.5;"/>
    <g clip-path="url(#p4c07a800b4)">
     <use style="fill:#2ca02c;stroke:#2ca02c;" x="598.303125" xlink:href="#m7178ea0680" y="261.941357"/>
     <use style="fill:#2ca02c;stroke:#2ca02c;" x="647.108681" xlink:href="#m7178ea0680" y="261.44872"/>
     <use style="fill:#2ca02c;stroke:#2ca02c;" x="695.914236" xlink:href="#m7178ea0680" y="262.070812"/>
     <use style="fill:#2ca02c;stroke:#2ca02c;" x="744.719792" xlink:href="#m7178ea0680" y="262.000562"/>
     <use style="fill:#2ca02c;stroke:#2ca02c;" x="793.525347" xlink:href="#m7178ea0680" y="261.336937"/>
     <use style="fill:#2ca02c;stroke:#2ca02c;" x="842.330903" xlink:href="#m7178ea0680" y="261.737233"/>
     <use style="fill:#2ca02c;stroke:#2ca02c;" x="891.136458" xlink:href="#m7178ea0680" y="264.573497"/>
     <use style="fill:#2ca02c;stroke:#2ca02c;" x="939.942014" xlink:href="#m7178ea0680" y="276.340719"/>
     <use style="fill:#2ca02c;stroke:#2ca02c;" x="988.747569" xlink:href="#m7178ea0680" y="291.062968"/>
     <use style="fill:#2ca02c;stroke:#2ca02c;" x="1037.553125" xlink:href="#m7178ea0680" y="300.718125"/>
    </g>
   </g>
   <g id="line2d_39">
    <path clip-path="url(#p4c07a800b4)" style="fill:none;stroke:#d62728;stroke-linecap:square;stroke-width:1.5;"/>
    <g clip-path="url(#p4c07a800b4)">
     <use style="fill:#d62728;stroke:#d62728;stroke-linejoin:miter;" x="0" xlink:href="#ma387d66e10" y="0"/>
    </g>
   </g>
   <g id="patch_9">
    <path d="M 576.340625 314.318125 
L 576.340625 15.118125 
" style="fill:none;stroke:#000000;stroke-linecap:square;stroke-linejoin:miter;stroke-width:0.8;"/>
   </g>
   <g id="patch_10">
    <path d="M 1059.515625 314.318125 
L 1059.515625 15.118125 
" style="fill:none;stroke:#000000;stroke-linecap:square;stroke-linejoin:miter;stroke-width:0.8;"/>
   </g>
   <g id="patch_11">
    <path d="M 576.340625 314.318125 
L 1059.515625 314.318125 
" style="fill:none;stroke:#000000;stroke-linecap:square;stroke-linejoin:miter;stroke-width:0.8;"/>
   </g>
   <g id="patch_12">
    <path d="M 576.340625 15.118125 
L 1059.515625 15.118125 
" style="fill:none;stroke:#000000;stroke-linecap:square;stroke-linejoin:miter;stroke-width:0.8;"/>
   </g>
   <g id="text_33">
    <!-- Dataset: Chess, Support=65% -->
    <g transform="translate(726.671875 9.118125)scale(0.12 -0.12)">
     <defs>
      <path d="M 54.890625 33.015625 
L 54.890625 0 
L 45.90625 0 
L 45.90625 32.71875 
Q 45.90625 40.484375 42.875 44.328125 
Q 39.84375 48.1875 33.796875 48.1875 
Q 26.515625 48.1875 22.3125 43.546875 
Q 18.109375 38.921875 18.109375 30.90625 
L 18.109375 0 
L 9.078125 0 
L 9.078125 75.984375 
L 18.109375 75.984375 
L 18.109375 46.1875 
Q 21.34375 51.125 25.703125 53.5625 
Q 30.078125 56 35.796875 56 
Q 45.21875 56 50.046875 50.171875 
Q 54.890625 44.34375 54.890625 33.015625 
z
" id="DejaVuSans-104"/>
     </defs>
     <use xlink:href="#DejaVuSans-68"/>
     <use x="77.001953" xlink:href="#DejaVuSans-97"/>
     <use x="138.28125" xlink:href="#DejaVuSans-116"/>
     <use x="177.490234" xlink:href="#DejaVuSans-97"/>
     <use x="238.769531" xlink:href="#DejaVuSans-115"/>
     <use x="290.869141" xlink:href="#DejaVuSans-101"/>
     <use x="352.392578" xlink:href="#DejaVuSans-116"/>
     <use x="391.601562" xlink:href="#DejaVuSans-58"/>
     <use x="425.292969" xlink:href="#DejaVuSans-32"/>
     <use x="457.080078" xlink:href="#DejaVuSans-67"/>
     <use x="526.904297" xlink:href="#DejaVuSans-104"/>
     <use x="590.283203" xlink:href="#DejaVuSans-101"/>
     <use x="651.806641" xlink:href="#DejaVuSans-115"/>
     <use x="703.90625" xlink:href="#DejaVuSans-115"/>
     <use x="756.005859" xlink:href="#DejaVuSans-44"/>
     <use x="787.792969" xlink:href="#DejaVuSans-32"/>
     <use x="819.580078" xlink:href="#DejaVuSans-83"/>
     <use x="883.056641" xlink:href="#DejaVuSans-117"/>
     <use x="946.435547" xlink:href="#DejaVuSans-112"/>
     <use x="1009.912109" xlink:href="#DejaVuSans-112"/>
     <use x="1073.388672" xlink:href="#DejaVuSans-111"/>
     <use x="1134.570312" xlink:href="#DejaVuSans-114"/>
     <use x="1175.683594" xlink:href="#DejaVuSans-116"/>
     <use x="1214.892578" xlink:href="#DejaVuSans-61"/>
     <use x="1298.681641" xlink:href="#DejaVuSans-54"/>
     <use x="1362.304688" xlink:href="#DejaVuSans-53"/>
     <use x="1425.927734" xlink:href="#DejaVuSans-37"/>
    </g>
   </g>
   <g id="legend_2">
    <g id="patch_13">
     <path d="M 934.764063 82.230625 
L 1052.515625 82.230625 
Q 1054.515625 82.230625 1054.515625 80.230625 
L 1054.515625 22.118125 
Q 1054.515625 20.118125 1052.515625 20.118125 
L 934.764063 20.118125 
Q 932.764063 20.118125 932.764063 22.118125 
L 932.764063 80.230625 
Q 932.764063 82.230625 934.764063 82.230625 
z
" style="fill:#ffffff;opacity:0.8;stroke:#cccccc;stroke-linejoin:miter;"/>
    </g>
    <g id="line2d_40">
     <path d="M 936.764063 28.216562 
L 956.764063 28.216562 
" style="fill:none;stroke:#1f77b4;stroke-linecap:square;stroke-width:1.5;"/>
    </g>
    <g id="line2d_41">
     <g>
      <use style="fill:#1f77b4;stroke:#1f77b4;stroke-linejoin:miter;" x="946.764063" xlink:href="#m98f01f2734" y="28.216562"/>
     </g>
    </g>
    <g id="text_34">
     <!-- CP4AR -->
     <g transform="translate(964.764063 31.716562)scale(0.1 -0.1)">
      <use xlink:href="#DejaVuSans-67"/>
      <use x="69.824219" xlink:href="#DejaVuSans-80"/>
      <use x="130.126953" xlink:href="#DejaVuSans-52"/>
      <use x="193.75" xlink:href="#DejaVuSans-65"/>
      <use x="262.158203" xlink:href="#DejaVuSans-82"/>
     </g>
    </g>
    <g id="line2d_42">
     <path d="M 936.764063 42.894687 
L 956.764063 42.894687 
" style="fill:none;stroke:#ff7f0e;stroke-linecap:square;stroke-width:1.5;"/>
    </g>
    <g id="line2d_43">
     <g>
      <use style="fill:#ff7f0e;stroke:#ff7f0e;" x="946.764063" xlink:href="#m14a2c78175" y="42.894687"/>
     </g>
    </g>
    <g id="text_35">
     <!-- MNR (SPMF) -->
     <g transform="translate(964.764063 46.394687)scale(0.1 -0.1)">
      <use xlink:href="#DejaVuSans-77"/>
      <use x="86.279297" xlink:href="#DejaVuSans-78"/>
      <use x="161.083984" xlink:href="#DejaVuSans-82"/>
      <use x="230.566406" xlink:href="#DejaVuSans-32"/>
      <use x="262.353516" xlink:href="#DejaVuSans-40"/>
      <use x="301.367188" xlink:href="#DejaVuSans-83"/>
      <use x="364.84375" xlink:href="#DejaVuSans-80"/>
      <use x="425.146484" xlink:href="#DejaVuSans-77"/>
      <use x="511.425781" xlink:href="#DejaVuSans-70"/>
      <use x="568.945312" xlink:href="#DejaVuSans-41"/>
     </g>
    </g>
    <g id="line2d_44">
     <path d="M 936.764063 57.972812 
L 956.764063 57.972812 
" style="fill:none;stroke:#2ca02c;stroke-linecap:square;stroke-width:1.5;"/>
    </g>
    <g id="line2d_45">
     <g>
      <use style="fill:#2ca02c;stroke:#2ca02c;" x="946.764063" xlink:href="#m7178ea0680" y="57.972812"/>
     </g>
    </g>
    <g id="text_36">
     <!-- SATAR (optimisé) -->
     <g transform="translate(964.764063 61.472812)scale(0.1 -0.1)">
      <use xlink:href="#DejaVuSans-83"/>
      <use x="65.351562" xlink:href="#DejaVuSans-65"/>
      <use x="126.009766" xlink:href="#DejaVuSans-84"/>
      <use x="179.34375" xlink:href="#DejaVuSans-65"/>
      <use x="247.751953" xlink:href="#DejaVuSans-82"/>
      <use x="317.234375" xlink:href="#DejaVuSans-32"/>
      <use x="349.021484" xlink:href="#DejaVuSans-40"/>
      <use x="388.035156" xlink:href="#DejaVuSans-111"/>
      <use x="449.216797" xlink:href="#DejaVuSans-112"/>
      <use x="512.693359" xlink:href="#DejaVuSans-116"/>
      <use x="551.902344" xlink:href="#DejaVuSans-105"/>
      <use x="579.685547" xlink:href="#DejaVuSans-109"/>
      <use x="677.097656" xlink:href="#DejaVuSans-105"/>
      <use x="704.880859" xlink:href="#DejaVuSans-115"/>
      <use x="756.980469" xlink:href="#DejaVuSans-233"/>
      <use x="818.503906" xlink:href="#DejaVuSans-41"/>
     </g>
    </g>
    <g id="line2d_46">
     <path d="M 936.764063 72.650937 
L 956.764063 72.650937 
" style="fill:none;stroke:#d62728;stroke-linecap:square;stroke-width:1.5;"/>
    </g>
    <g id="line2d_47">
     <g>
      <use style="fill:#d62728;stroke:#d62728;stroke-linejoin:miter;" x="946.764063" xlink:href="#ma387d66e10" y="72.650937"/>
     </g>
    </g>
    <g id="text_37">
     <!-- SATAR -->
     <g transform="translate(964.764063 76.150937)scale(0.1 -0.1)">
      <use xlink:href="#DejaVuSans-83"/>
      <use x="65.351562" xlink:href="#DejaVuSans-65"/>
      <use x="126.009766" xlink:href="#DejaVuSans-84"/>
      <use x="179.34375" xlink:href="#DejaVuSans-65"/>
      <use x="247.751953" xlink:href="#DejaVuSans-82"/>
     </g>
    </g>
   </g>
  </g>
  <g id="axes_3">
   <g id="patch_14">
    <path d="M 39.765625 669.318125 
L 522.940625 669.318125 
L 522.940625 370.118125 
L 39.765625 370.118125 
z
" style="fill:#ffffff;"/>
   </g>
   <g id="matplotlib.axis_5">
    <g id="xtick_11">
     <g id="line2d_48">
      <g>
       <use style="stroke:#000000;stroke-width:0.8;" x="110.533681" xlink:href="#m62710466ec" y="669.318125"/>
      </g>
     </g>
     <g id="text_38">
      <!-- 20 -->
      <g transform="translate(104.171181 683.916563)scale(0.1 -0.1)">
       <use xlink:href="#DejaVuSans-50"/>
       <use x="63.623047" xlink:href="#DejaVuSans-48"/>
      </g>
     </g>
    </g>
    <g id="xtick_12">
     <g id="line2d_49">
      <g>
       <use style="stroke:#000000;stroke-width:0.8;" x="208.144792" xlink:href="#m62710466ec" y="669.318125"/>
      </g>
     </g>
     <g id="text_39">
      <!-- 40 -->
      <g transform="translate(201.782292 683.916563)scale(0.1 -0.1)">
       <use xlink:href="#DejaVuSans-52"/>
       <use x="63.623047" xlink:href="#DejaVuSans-48"/>
      </g>
     </g>
    </g>
    <g id="xtick_13">
     <g id="line2d_50">
      <g>
       <use style="stroke:#000000;stroke-width:0.8;" x="305.755903" xlink:href="#m62710466ec" y="669.318125"/>
      </g>
     </g>
     <g id="text_40">
      <!-- 60 -->
      <g transform="translate(299.393403 683.916563)scale(0.1 -0.1)">
       <use xlink:href="#DejaVuSans-54"/>
       <use x="63.623047" xlink:href="#DejaVuSans-48"/>
      </g>
     </g>
    </g>
    <g id="xtick_14">
     <g id="line2d_51">
      <g>
       <use style="stroke:#000000;stroke-width:0.8;" x="403.367014" xlink:href="#m62710466ec" y="669.318125"/>
      </g>
     </g>
     <g id="text_41">
      <!-- 80 -->
      <g transform="translate(397.004514 683.916563)scale(0.1 -0.1)">
       <use xlink:href="#DejaVuSans-56"/>
       <use x="63.623047" xlink:href="#DejaVuSans-48"/>
      </g>
     </g>
    </g>
    <g id="xtick_15">
     <g id="line2d_52">
      <g>
       <use style="stroke:#000000;stroke-width:0.8;" x="500.978125" xlink:href="#m62710466ec" y="669.318125"/>
      </g>
     </g>
     <g id="text_42">
      <!-- 100 -->
      <g transform="translate(491.434375 683.916563)scale(0.1 -0.1)">
       <use xlink:href="#DejaVuSans-49"/>
       <use x="63.623047" xlink:href="#DejaVuSans-48"/>
       <use x="127.246094" xlink:href="#DejaVuSans-48"/>
      </g>
     </g>
    </g>
    <g id="text_43">
     <!-- Confiance -->
     <g transform="translate(256.425781 697.594688)scale(0.1 -0.1)">
      <use xlink:href="#DejaVuSans-67"/>
      <use x="69.824219" xlink:href="#DejaVuSans-111"/>
      <use x="131.005859" xlink:href="#DejaVuSans-110"/>
      <use x="194.384766" xlink:href="#DejaVuSans-102"/>
      <use x="229.589844" xlink:href="#DejaVuSans-105"/>
      <use x="257.373047" xlink:href="#DejaVuSans-97"/>
      <use x="318.652344" xlink:href="#DejaVuSans-110"/>
      <use x="382.03125" xlink:href="#DejaVuSans-99"/>
      <use x="437.011719" xlink:href="#DejaVuSans-101"/>
     </g>
    </g>
   </g>
   <g id="matplotlib.axis_6">
    <g id="ytick_14">
     <g id="line2d_53">
      <g>
       <use style="stroke:#000000;stroke-width:0.8;" x="39.765625" xlink:href="#mc5de3d98aa" y="658.13201"/>
      </g>
     </g>
     <g id="text_44">
      <!-- 0 -->
      <g transform="translate(26.403125 661.931229)scale(0.1 -0.1)">
       <use xlink:href="#DejaVuSans-48"/>
      </g>
     </g>
    </g>
    <g id="ytick_15">
     <g id="line2d_54">
      <g>
       <use style="stroke:#000000;stroke-width:0.8;" x="39.765625" xlink:href="#mc5de3d98aa" y="617.051595"/>
      </g>
     </g>
     <g id="text_45">
      <!-- 25 -->
      <g transform="translate(20.040625 620.850814)scale(0.1 -0.1)">
       <use xlink:href="#DejaVuSans-50"/>
       <use x="63.623047" xlink:href="#DejaVuSans-53"/>
      </g>
     </g>
    </g>
    <g id="ytick_16">
     <g id="line2d_55">
      <g>
       <use style="stroke:#000000;stroke-width:0.8;" x="39.765625" xlink:href="#mc5de3d98aa" y="575.97118"/>
      </g>
     </g>
     <g id="text_46">
      <!-- 50 -->
      <g transform="translate(20.040625 579.770399)scale(0.1 -0.1)">
       <use xlink:href="#DejaVuSans-53"/>
       <use x="63.623047" xlink:href="#DejaVuSans-48"/>
      </g>
     </g>
    </g>
    <g id="ytick_17">
     <g id="line2d_56">
      <g>
       <use style="stroke:#000000;stroke-width:0.8;" x="39.765625" xlink:href="#mc5de3d98aa" y="534.890765"/>
      </g>
     </g>
     <g id="text_47">
      <!-- 75 -->
      <g transform="translate(20.040625 538.689984)scale(0.1 -0.1)">
       <defs>
        <path d="M 8.203125 72.90625 
L 55.078125 72.90625 
L 55.078125 68.703125 
L 28.609375 0 
L 18.3125 0 
L 43.21875 64.59375 
L 8.203125 64.59375 
z
" id="DejaVuSans-55"/>
       </defs>
       <use xlink:href="#DejaVuSans-55"/>
       <use x="63.623047" xlink:href="#DejaVuSans-53"/>
      </g>
     </g>
    </g>
    <g id="ytick_18">
     <g id="line2d_57">
      <g>
       <use style="stroke:#000000;stroke-width:0.8;" x="39.765625" xlink:href="#mc5de3d98aa" y="493.810351"/>
      </g>
     </g>
     <g id="text_48">
      <!-- 100 -->
      <g transform="translate(13.678125 497.609569)scale(0.1 -0.1)">
       <use xlink:href="#DejaVuSans-49"/>
       <use x="63.623047" xlink:href="#DejaVuSans-48"/>
       <use x="127.246094" xlink:href="#DejaVuSans-48"/>
      </g>
     </g>
    </g>
    <g id="ytick_19">
     <g id="line2d_58">
      <g>
       <use style="stroke:#000000;stroke-width:0.8;" x="39.765625" xlink:href="#mc5de3d98aa" y="452.729936"/>
      </g>
     </g>
     <g id="text_49">
      <!-- 125 -->
      <g transform="translate(13.678125 456.529154)scale(0.1 -0.1)">
       <use xlink:href="#DejaVuSans-49"/>
       <use x="63.623047" xlink:href="#DejaVuSans-50"/>
       <use x="127.246094" xlink:href="#DejaVuSans-53"/>
      </g>
     </g>
    </g>
    <g id="ytick_20">
     <g id="line2d_59">
      <g>
       <use style="stroke:#000000;stroke-width:0.8;" x="39.765625" xlink:href="#mc5de3d98aa" y="411.649521"/>
      </g>
     </g>
     <g id="text_50">
      <!-- 150 -->
      <g transform="translate(13.678125 415.448739)scale(0.1 -0.1)">
       <use xlink:href="#DejaVuSans-49"/>
       <use x="63.623047" xlink:href="#DejaVuSans-53"/>
       <use x="127.246094" xlink:href="#DejaVuSans-48"/>
      </g>
     </g>
    </g>
    <g id="ytick_21">
     <g id="line2d_60">
      <g>
       <use style="stroke:#000000;stroke-width:0.8;" x="39.765625" xlink:href="#mc5de3d98aa" y="370.569106"/>
      </g>
     </g>
     <g id="text_51">
      <!-- 175 -->
      <g transform="translate(13.678125 374.368325)scale(0.1 -0.1)">
       <use xlink:href="#DejaVuSans-49"/>
       <use x="63.623047" xlink:href="#DejaVuSans-55"/>
       <use x="127.246094" xlink:href="#DejaVuSans-53"/>
      </g>
     </g>
    </g>
    <g id="text_52">
     <!-- Temps (s) -->
     <g transform="translate(7.598438 543.743125)rotate(-90)scale(0.1 -0.1)">
      <use xlink:href="#DejaVuSans-84"/>
      <use x="44.083984" xlink:href="#DejaVuSans-101"/>
      <use x="105.607422" xlink:href="#DejaVuSans-109"/>
      <use x="203.019531" xlink:href="#DejaVuSans-112"/>
      <use x="266.496094" xlink:href="#DejaVuSans-115"/>
      <use x="318.595703" xlink:href="#DejaVuSans-32"/>
      <use x="350.382812" xlink:href="#DejaVuSans-40"/>
      <use x="389.396484" xlink:href="#DejaVuSans-115"/>
      <use x="441.496094" xlink:href="#DejaVuSans-41"/>
     </g>
    </g>
   </g>
   <g id="line2d_61">
    <path clip-path="url(#p78165b46af)" d="M 61.728125 623.593241 
L 110.533681 623.218587 
L 159.339236 624.040195 
L 208.144792 622.868582 
L 256.950347 623.384552 
L 305.755903 623.4092 
L 354.561458 624.229165 
L 403.367014 623.41413 
L 452.172569 623.675401 
L 500.978125 655.718125 
" style="fill:none;stroke:#1f77b4;stroke-linecap:square;stroke-width:1.5;"/>
    <g clip-path="url(#p78165b46af)">
     <use style="fill:#1f77b4;stroke:#1f77b4;stroke-linejoin:miter;" x="61.728125" xlink:href="#m98f01f2734" y="623.593241"/>
     <use style="fill:#1f77b4;stroke:#1f77b4;stroke-linejoin:miter;" x="110.533681" xlink:href="#m98f01f2734" y="623.218587"/>
     <use style="fill:#1f77b4;stroke:#1f77b4;stroke-linejoin:miter;" x="159.339236" xlink:href="#m98f01f2734" y="624.040195"/>
     <use style="fill:#1f77b4;stroke:#1f77b4;stroke-linejoin:miter;" x="208.144792" xlink:href="#m98f01f2734" y="622.868582"/>
     <use style="fill:#1f77b4;stroke:#1f77b4;stroke-linejoin:miter;" x="256.950347" xlink:href="#m98f01f2734" y="623.384552"/>
     <use style="fill:#1f77b4;stroke:#1f77b4;stroke-linejoin:miter;" x="305.755903" xlink:href="#m98f01f2734" y="623.4092"/>
     <use style="fill:#1f77b4;stroke:#1f77b4;stroke-linejoin:miter;" x="354.561458" xlink:href="#m98f01f2734" y="624.229165"/>
     <use style="fill:#1f77b4;stroke:#1f77b4;stroke-linejoin:miter;" x="403.367014" xlink:href="#m98f01f2734" y="623.41413"/>
     <use style="fill:#1f77b4;stroke:#1f77b4;stroke-linejoin:miter;" x="452.172569" xlink:href="#m98f01f2734" y="623.675401"/>
     <use style="fill:#1f77b4;stroke:#1f77b4;stroke-linejoin:miter;" x="500.978125" xlink:href="#m98f01f2734" y="655.718125"/>
    </g>
   </g>
   <g id="line2d_62">
    <path clip-path="url(#p78165b46af)" d="M 61.728125 389.947559 
L 110.533681 396.503993 
L 159.339236 396.771838 
L 208.144792 387.816307 
L 256.950347 396.80158 
L 305.755903 390.04796 
L 354.561458 383.718125 
L 403.367014 396.513853 
L 452.172569 388.964916 
L 500.978125 391.242414 
" style="fill:none;stroke:#ff7f0e;stroke-linecap:square;stroke-width:1.5;"/>
    <g clip-path="url(#p78165b46af)">
     <use style="fill:#ff7f0e;stroke:#ff7f0e;" x="61.728125" xlink:href="#m14a2c78175" y="389.947559"/>
     <use style="fill:#ff7f0e;stroke:#ff7f0e;" x="110.533681" xlink:href="#m14a2c78175" y="396.503993"/>
     <use style="fill:#ff7f0e;stroke:#ff7f0e;" x="159.339236" xlink:href="#m14a2c78175" y="396.771838"/>
     <use style="fill:#ff7f0e;stroke:#ff7f0e;" x="208.144792" xlink:href="#m14a2c78175" y="387.816307"/>
     <use style="fill:#ff7f0e;stroke:#ff7f0e;" x="256.950347" xlink:href="#m14a2c78175" y="396.80158"/>
     <use style="fill:#ff7f0e;stroke:#ff7f0e;" x="305.755903" xlink:href="#m14a2c78175" y="390.04796"/>
     <use style="fill:#ff7f0e;stroke:#ff7f0e;" x="354.561458" xlink:href="#m14a2c78175" y="383.718125"/>
     <use style="fill:#ff7f0e;stroke:#ff7f0e;" x="403.367014" xlink:href="#m14a2c78175" y="396.513853"/>
     <use style="fill:#ff7f0e;stroke:#ff7f0e;" x="452.172569" xlink:href="#m14a2c78175" y="388.964916"/>
     <use style="fill:#ff7f0e;stroke:#ff7f0e;" x="500.978125" xlink:href="#m14a2c78175" y="391.242414"/>
    </g>
   </g>
   <g id="line2d_63">
    <path clip-path="url(#p78165b46af)" d="M 61.728125 622.568366 
L 110.533681 623.575329 
L 159.339236 623.570564 
L 208.144792 622.719707 
L 256.950347 623.506807 
L 305.755903 622.629494 
L 354.561458 623.513216 
L 403.367014 622.812877 
L 452.172569 623.600964 
L 500.978125 632.363252 
" style="fill:none;stroke:#2ca02c;stroke-linecap:square;stroke-width:1.5;"/>
    <g clip-path="url(#p78165b46af)">
     <use style="fill:#2ca02c;stroke:#2ca02c;" x="61.728125" xlink:href="#m7178ea0680" y="622.568366"/>
     <use style="fill:#2ca02c;stroke:#2ca02c;" x="110.533681" xlink:href="#m7178ea0680" y="623.575329"/>
     <use style="fill:#2ca02c;stroke:#2ca02c;" x="159.339236" xlink:href="#m7178ea0680" y="623.570564"/>
     <use style="fill:#2ca02c;stroke:#2ca02c;" x="208.144792" xlink:href="#m7178ea0680" y="622.719707"/>
     <use style="fill:#2ca02c;stroke:#2ca02c;" x="256.950347" xlink:href="#m7178ea0680" y="623.506807"/>
     <use style="fill:#2ca02c;stroke:#2ca02c;" x="305.755903" xlink:href="#m7178ea0680" y="622.629494"/>
     <use style="fill:#2ca02c;stroke:#2ca02c;" x="354.561458" xlink:href="#m7178ea0680" y="623.513216"/>
     <use style="fill:#2ca02c;stroke:#2ca02c;" x="403.367014" xlink:href="#m7178ea0680" y="622.812877"/>
     <use style="fill:#2ca02c;stroke:#2ca02c;" x="452.172569" xlink:href="#m7178ea0680" y="623.600964"/>
     <use style="fill:#2ca02c;stroke:#2ca02c;" x="500.978125" xlink:href="#m7178ea0680" y="632.363252"/>
    </g>
   </g>
   <g id="line2d_64">
    <path clip-path="url(#p78165b46af)" style="fill:none;stroke:#d62728;stroke-linecap:square;stroke-width:1.5;"/>
    <g clip-path="url(#p78165b46af)">
     <use style="fill:#d62728;stroke:#d62728;stroke-linejoin:miter;" x="0" xlink:href="#ma387d66e10" y="0"/>
    </g>
   </g>
   <g id="patch_15">
    <path d="M 39.765625 669.318125 
L 39.765625 370.118125 
" style="fill:none;stroke:#000000;stroke-linecap:square;stroke-linejoin:miter;stroke-width:0.8;"/>
   </g>
   <g id="patch_16">
    <path d="M 522.940625 669.318125 
L 522.940625 370.118125 
" style="fill:none;stroke:#000000;stroke-linecap:square;stroke-linejoin:miter;stroke-width:0.8;"/>
   </g>
   <g id="patch_17">
    <path d="M 39.765625 669.318125 
L 522.940625 669.318125 
" style="fill:none;stroke:#000000;stroke-linecap:square;stroke-linejoin:miter;stroke-width:0.8;"/>
   </g>
   <g id="patch_18">
    <path d="M 39.765625 370.118125 
L 522.940625 370.118125 
" style="fill:none;stroke:#000000;stroke-linecap:square;stroke-linejoin:miter;stroke-width:0.8;"/>
   </g>
   <g id="text_53">
    <!-- Dataset: Connect, Support=90% -->
    <g transform="translate(183.223125 364.118125)scale(0.12 -0.12)">
     <defs>
      <path d="M 10.984375 1.515625 
L 10.984375 10.5 
Q 14.703125 8.734375 18.5 7.8125 
Q 22.3125 6.890625 25.984375 6.890625 
Q 35.75 6.890625 40.890625 13.453125 
Q 46.046875 20.015625 46.78125 33.40625 
Q 43.953125 29.203125 39.59375 26.953125 
Q 35.25 24.703125 29.984375 24.703125 
Q 19.046875 24.703125 12.671875 31.3125 
Q 6.296875 37.9375 6.296875 49.421875 
Q 6.296875 60.640625 12.9375 67.421875 
Q 19.578125 74.21875 30.609375 74.21875 
Q 43.265625 74.21875 49.921875 64.515625 
Q 56.59375 54.828125 56.59375 36.375 
Q 56.59375 19.140625 48.40625 8.859375 
Q 40.234375 -1.421875 26.421875 -1.421875 
Q 22.703125 -1.421875 18.890625 -0.6875 
Q 15.09375 0.046875 10.984375 1.515625 
z
M 30.609375 32.421875 
Q 37.25 32.421875 41.125 36.953125 
Q 45.015625 41.5 45.015625 49.421875 
Q 45.015625 57.28125 41.125 61.84375 
Q 37.25 66.40625 30.609375 66.40625 
Q 23.96875 66.40625 20.09375 61.84375 
Q 16.21875 57.28125 16.21875 49.421875 
Q 16.21875 41.5 20.09375 36.953125 
Q 23.96875 32.421875 30.609375 32.421875 
z
" id="DejaVuSans-57"/>
     </defs>
     <use xlink:href="#DejaVuSans-68"/>
     <use x="77.001953" xlink:href="#DejaVuSans-97"/>
     <use x="138.28125" xlink:href="#DejaVuSans-116"/>
     <use x="177.490234" xlink:href="#DejaVuSans-97"/>
     <use x="238.769531" xlink:href="#DejaVuSans-115"/>
     <use x="290.869141" xlink:href="#DejaVuSans-101"/>
     <use x="352.392578" xlink:href="#DejaVuSans-116"/>
     <use x="391.601562" xlink:href="#DejaVuSans-58"/>
     <use x="425.292969" xlink:href="#DejaVuSans-32"/>
     <use x="457.080078" xlink:href="#DejaVuSans-67"/>
     <use x="526.904297" xlink:href="#DejaVuSans-111"/>
     <use x="588.085938" xlink:href="#DejaVuSans-110"/>
     <use x="651.464844" xlink:href="#DejaVuSans-110"/>
     <use x="714.84375" xlink:href="#DejaVuSans-101"/>
     <use x="776.367188" xlink:href="#DejaVuSans-99"/>
     <use x="831.347656" xlink:href="#DejaVuSans-116"/>
     <use x="870.556641" xlink:href="#DejaVuSans-44"/>
     <use x="902.34375" xlink:href="#DejaVuSans-32"/>
     <use x="934.130859" xlink:href="#DejaVuSans-83"/>
     <use x="997.607422" xlink:href="#DejaVuSans-117"/>
     <use x="1060.986328" xlink:href="#DejaVuSans-112"/>
     <use x="1124.462891" xlink:href="#DejaVuSans-112"/>
     <use x="1187.939453" xlink:href="#DejaVuSans-111"/>
     <use x="1249.121094" xlink:href="#DejaVuSans-114"/>
     <use x="1290.234375" xlink:href="#DejaVuSans-116"/>
     <use x="1329.443359" xlink:href="#DejaVuSans-61"/>
     <use x="1413.232422" xlink:href="#DejaVuSans-57"/>
     <use x="1476.855469" xlink:href="#DejaVuSans-48"/>
     <use x="1540.478516" xlink:href="#DejaVuSans-37"/>
    </g>
   </g>
   <g id="legend_3">
    <g id="patch_19">
     <path d="M 398.189063 550.774375 
L 515.940625 550.774375 
Q 517.940625 550.774375 517.940625 548.774375 
L 517.940625 490.661875 
Q 517.940625 488.661875 515.940625 488.661875 
L 398.189063 488.661875 
Q 396.189063 488.661875 396.189063 490.661875 
L 396.189063 548.774375 
Q 396.189063 550.774375 398.189063 550.774375 
z
" style="fill:#ffffff;opacity:0.8;stroke:#cccccc;stroke-linejoin:miter;"/>
    </g>
    <g id="line2d_65">
     <path d="M 400.189063 496.760312 
L 420.189063 496.760312 
" style="fill:none;stroke:#1f77b4;stroke-linecap:square;stroke-width:1.5;"/>
    </g>
    <g id="line2d_66">
     <g>
      <use style="fill:#1f77b4;stroke:#1f77b4;stroke-linejoin:miter;" x="410.189063" xlink:href="#m98f01f2734" y="496.760312"/>
     </g>
    </g>
    <g id="text_54">
     <!-- CP4AR -->
     <g transform="translate(428.189063 500.260312)scale(0.1 -0.1)">
      <use xlink:href="#DejaVuSans-67"/>
      <use x="69.824219" xlink:href="#DejaVuSans-80"/>
      <use x="130.126953" xlink:href="#DejaVuSans-52"/>
      <use x="193.75" xlink:href="#DejaVuSans-65"/>
      <use x="262.158203" xlink:href="#DejaVuSans-82"/>
     </g>
    </g>
    <g id="line2d_67">
     <path d="M 400.189063 511.438437 
L 420.189063 511.438437 
" style="fill:none;stroke:#ff7f0e;stroke-linecap:square;stroke-width:1.5;"/>
    </g>
    <g id="line2d_68">
     <g>
      <use style="fill:#ff7f0e;stroke:#ff7f0e;" x="410.189063" xlink:href="#m14a2c78175" y="511.438437"/>
     </g>
    </g>
    <g id="text_55">
     <!-- MNR (SPMF) -->
     <g transform="translate(428.189063 514.938437)scale(0.1 -0.1)">
      <use xlink:href="#DejaVuSans-77"/>
      <use x="86.279297" xlink:href="#DejaVuSans-78"/>
      <use x="161.083984" xlink:href="#DejaVuSans-82"/>
      <use x="230.566406" xlink:href="#DejaVuSans-32"/>
      <use x="262.353516" xlink:href="#DejaVuSans-40"/>
      <use x="301.367188" xlink:href="#DejaVuSans-83"/>
      <use x="364.84375" xlink:href="#DejaVuSans-80"/>
      <use x="425.146484" xlink:href="#DejaVuSans-77"/>
      <use x="511.425781" xlink:href="#DejaVuSans-70"/>
      <use x="568.945312" xlink:href="#DejaVuSans-41"/>
     </g>
    </g>
    <g id="line2d_69">
     <path d="M 400.189063 526.516562 
L 420.189063 526.516562 
" style="fill:none;stroke:#2ca02c;stroke-linecap:square;stroke-width:1.5;"/>
    </g>
    <g id="line2d_70">
     <g>
      <use style="fill:#2ca02c;stroke:#2ca02c;" x="410.189063" xlink:href="#m7178ea0680" y="526.516562"/>
     </g>
    </g>
    <g id="text_56">
     <!-- SATAR (optimisé) -->
     <g transform="translate(428.189063 530.016562)scale(0.1 -0.1)">
      <use xlink:href="#DejaVuSans-83"/>
      <use x="65.351562" xlink:href="#DejaVuSans-65"/>
      <use x="126.009766" xlink:href="#DejaVuSans-84"/>
      <use x="179.34375" xlink:href="#DejaVuSans-65"/>
      <use x="247.751953" xlink:href="#DejaVuSans-82"/>
      <use x="317.234375" xlink:href="#DejaVuSans-32"/>
      <use x="349.021484" xlink:href="#DejaVuSans-40"/>
      <use x="388.035156" xlink:href="#DejaVuSans-111"/>
      <use x="449.216797" xlink:href="#DejaVuSans-112"/>
      <use x="512.693359" xlink:href="#DejaVuSans-116"/>
      <use x="551.902344" xlink:href="#DejaVuSans-105"/>
      <use x="579.685547" xlink:href="#DejaVuSans-109"/>
      <use x="677.097656" xlink:href="#DejaVuSans-105"/>
      <use x="704.880859" xlink:href="#DejaVuSans-115"/>
      <use x="756.980469" xlink:href="#DejaVuSans-233"/>
      <use x="818.503906" xlink:href="#DejaVuSans-41"/>
     </g>
    </g>
    <g id="line2d_71">
     <path d="M 400.189063 541.194687 
L 420.189063 541.194687 
" style="fill:none;stroke:#d62728;stroke-linecap:square;stroke-width:1.5;"/>
    </g>
    <g id="line2d_72">
     <g>
      <use style="fill:#d62728;stroke:#d62728;stroke-linejoin:miter;" x="410.189063" xlink:href="#ma387d66e10" y="541.194687"/>
     </g>
    </g>
    <g id="text_57">
     <!-- SATAR -->
     <g transform="translate(428.189063 544.694687)scale(0.1 -0.1)">
      <use xlink:href="#DejaVuSans-83"/>
      <use x="65.351562" xlink:href="#DejaVuSans-65"/>
      <use x="126.009766" xlink:href="#DejaVuSans-84"/>
      <use x="179.34375" xlink:href="#DejaVuSans-65"/>
      <use x="247.751953" xlink:href="#DejaVuSans-82"/>
     </g>
    </g>
   </g>
  </g>
  <g id="axes_4">
   <g id="patch_20">
    <path d="M 576.340625 669.318125 
L 1059.515625 669.318125 
L 1059.515625 370.118125 
L 576.340625 370.118125 
z
" style="fill:#ffffff;"/>
   </g>
   <g id="matplotlib.axis_7">
    <g id="xtick_16">
     <g id="line2d_73">
      <g>
       <use style="stroke:#000000;stroke-width:0.8;" x="647.108681" xlink:href="#m62710466ec" y="669.318125"/>
      </g>
     </g>
     <g id="text_58">
      <!-- 20 -->
      <g transform="translate(640.746181 683.916563)scale(0.1 -0.1)">
       <use xlink:href="#DejaVuSans-50"/>
       <use x="63.623047" xlink:href="#DejaVuSans-48"/>
      </g>
     </g>
    </g>
    <g id="xtick_17">
     <g id="line2d_74">
      <g>
       <use style="stroke:#000000;stroke-width:0.8;" x="744.719792" xlink:href="#m62710466ec" y="669.318125"/>
      </g>
     </g>
     <g id="text_59">
      <!-- 40 -->
      <g transform="translate(738.357292 683.916563)scale(0.1 -0.1)">
       <use xlink:href="#DejaVuSans-52"/>
       <use x="63.623047" xlink:href="#DejaVuSans-48"/>
      </g>
     </g>
    </g>
    <g id="xtick_18">
     <g id="line2d_75">
      <g>
       <use style="stroke:#000000;stroke-width:0.8;" x="842.330903" xlink:href="#m62710466ec" y="669.318125"/>
      </g>
     </g>
     <g id="text_60">
      <!-- 60 -->
      <g transform="translate(835.968403 683.916563)scale(0.1 -0.1)">
       <use xlink:href="#DejaVuSans-54"/>
       <use x="63.623047" xlink:href="#DejaVuSans-48"/>
      </g>
     </g>
    </g>
    <g id="xtick_19">
     <g id="line2d_76">
      <g>
       <use style="stroke:#000000;stroke-width:0.8;" x="939.942014" xlink:href="#m62710466ec" y="669.318125"/>
      </g>
     </g>
     <g id="text_61">
      <!-- 80 -->
      <g transform="translate(933.579514 683.916563)scale(0.1 -0.1)">
       <use xlink:href="#DejaVuSans-56"/>
       <use x="63.623047" xlink:href="#DejaVuSans-48"/>
      </g>
     </g>
    </g>
    <g id="xtick_20">
     <g id="line2d_77">
      <g>
       <use style="stroke:#000000;stroke-width:0.8;" x="1037.553125" xlink:href="#m62710466ec" y="669.318125"/>
      </g>
     </g>
     <g id="text_62">
      <!-- 100 -->
      <g transform="translate(1028.009375 683.916563)scale(0.1 -0.1)">
       <use xlink:href="#DejaVuSans-49"/>
       <use x="63.623047" xlink:href="#DejaVuSans-48"/>
       <use x="127.246094" xlink:href="#DejaVuSans-48"/>
      </g>
     </g>
    </g>
    <g id="text_63">
     <!-- Confiance -->
     <g transform="translate(793.000781 697.594688)scale(0.1 -0.1)">
      <use xlink:href="#DejaVuSans-67"/>
      <use x="69.824219" xlink:href="#DejaVuSans-111"/>
      <use x="131.005859" xlink:href="#DejaVuSans-110"/>
      <use x="194.384766" xlink:href="#DejaVuSans-102"/>
      <use x="229.589844" xlink:href="#DejaVuSans-105"/>
      <use x="257.373047" xlink:href="#DejaVuSans-97"/>
      <use x="318.652344" xlink:href="#DejaVuSans-110"/>
      <use x="382.03125" xlink:href="#DejaVuSans-99"/>
      <use x="437.011719" xlink:href="#DejaVuSans-101"/>
     </g>
    </g>
   </g>
   <g id="matplotlib.axis_8">
    <g id="ytick_22">
     <g id="line2d_78">
      <g>
       <use style="stroke:#000000;stroke-width:0.8;" x="576.340625" xlink:href="#mc5de3d98aa" y="662.405861"/>
      </g>
     </g>
     <g id="text_64">
      <!-- 0.0 -->
      <g transform="translate(553.4375 666.20508)scale(0.1 -0.1)">
       <defs>
        <path d="M 10.6875 12.40625 
L 21 12.40625 
L 21 0 
L 10.6875 0 
z
" id="DejaVuSans-46"/>
       </defs>
       <use xlink:href="#DejaVuSans-48"/>
       <use x="63.623047" xlink:href="#DejaVuSans-46"/>
       <use x="95.410156" xlink:href="#DejaVuSans-48"/>
      </g>
     </g>
    </g>
    <g id="ytick_23">
     <g id="line2d_79">
      <g>
       <use style="stroke:#000000;stroke-width:0.8;" x="576.340625" xlink:href="#mc5de3d98aa" y="624.233851"/>
      </g>
     </g>
     <g id="text_65">
      <!-- 2.5 -->
      <g transform="translate(553.4375 628.03307)scale(0.1 -0.1)">
       <use xlink:href="#DejaVuSans-50"/>
       <use x="63.623047" xlink:href="#DejaVuSans-46"/>
       <use x="95.410156" xlink:href="#DejaVuSans-53"/>
      </g>
     </g>
    </g>
    <g id="ytick_24">
     <g id="line2d_80">
      <g>
       <use style="stroke:#000000;stroke-width:0.8;" x="576.340625" xlink:href="#mc5de3d98aa" y="586.061841"/>
      </g>
     </g>
     <g id="text_66">
      <!-- 5.0 -->
      <g transform="translate(553.4375 589.86106)scale(0.1 -0.1)">
       <use xlink:href="#DejaVuSans-53"/>
       <use x="63.623047" xlink:href="#DejaVuSans-46"/>
       <use x="95.410156" xlink:href="#DejaVuSans-48"/>
      </g>
     </g>
    </g>
    <g id="ytick_25">
     <g id="line2d_81">
      <g>
       <use style="stroke:#000000;stroke-width:0.8;" x="576.340625" xlink:href="#mc5de3d98aa" y="547.889832"/>
      </g>
     </g>
     <g id="text_67">
      <!-- 7.5 -->
      <g transform="translate(553.4375 551.68905)scale(0.1 -0.1)">
       <use xlink:href="#DejaVuSans-55"/>
       <use x="63.623047" xlink:href="#DejaVuSans-46"/>
       <use x="95.410156" xlink:href="#DejaVuSans-53"/>
      </g>
     </g>
    </g>
    <g id="ytick_26">
     <g id="line2d_82">
      <g>
       <use style="stroke:#000000;stroke-width:0.8;" x="576.340625" xlink:href="#mc5de3d98aa" y="509.717822"/>
      </g>
     </g>
     <g id="text_68">
      <!-- 10.0 -->
      <g transform="translate(547.075 513.517041)scale(0.1 -0.1)">
       <use xlink:href="#DejaVuSans-49"/>
       <use x="63.623047" xlink:href="#DejaVuSans-48"/>
       <use x="127.246094" xlink:href="#DejaVuSans-46"/>
       <use x="159.033203" xlink:href="#DejaVuSans-48"/>
      </g>
     </g>
    </g>
    <g id="ytick_27">
     <g id="line2d_83">
      <g>
       <use style="stroke:#000000;stroke-width:0.8;" x="576.340625" xlink:href="#mc5de3d98aa" y="471.545812"/>
      </g>
     </g>
     <g id="text_69">
      <!-- 12.5 -->
      <g transform="translate(547.075 475.345031)scale(0.1 -0.1)">
       <use xlink:href="#DejaVuSans-49"/>
       <use x="63.623047" xlink:href="#DejaVuSans-50"/>
       <use x="127.246094" xlink:href="#DejaVuSans-46"/>
       <use x="159.033203" xlink:href="#DejaVuSans-53"/>
      </g>
     </g>
    </g>
    <g id="ytick_28">
     <g id="line2d_84">
      <g>
       <use style="stroke:#000000;stroke-width:0.8;" x="576.340625" xlink:href="#mc5de3d98aa" y="433.373802"/>
      </g>
     </g>
     <g id="text_70">
      <!-- 15.0 -->
      <g transform="translate(547.075 437.173021)scale(0.1 -0.1)">
       <use xlink:href="#DejaVuSans-49"/>
       <use x="63.623047" xlink:href="#DejaVuSans-53"/>
       <use x="127.246094" xlink:href="#DejaVuSans-46"/>
       <use x="159.033203" xlink:href="#DejaVuSans-48"/>
      </g>
     </g>
    </g>
    <g id="ytick_29">
     <g id="line2d_85">
      <g>
       <use style="stroke:#000000;stroke-width:0.8;" x="576.340625" xlink:href="#mc5de3d98aa" y="395.201792"/>
      </g>
     </g>
     <g id="text_71">
      <!-- 17.5 -->
      <g transform="translate(547.075 399.001011)scale(0.1 -0.1)">
       <use xlink:href="#DejaVuSans-49"/>
       <use x="63.623047" xlink:href="#DejaVuSans-55"/>
       <use x="127.246094" xlink:href="#DejaVuSans-46"/>
       <use x="159.033203" xlink:href="#DejaVuSans-53"/>
      </g>
     </g>
    </g>
    <g id="text_72">
     <!-- Temps (s) -->
     <g transform="translate(540.995313 543.743125)rotate(-90)scale(0.1 -0.1)">
      <use xlink:href="#DejaVuSans-84"/>
      <use x="44.083984" xlink:href="#DejaVuSans-101"/>
      <use x="105.607422" xlink:href="#DejaVuSans-109"/>
      <use x="203.019531" xlink:href="#DejaVuSans-112"/>
      <use x="266.496094" xlink:href="#DejaVuSans-115"/>
      <use x="318.595703" xlink:href="#DejaVuSans-32"/>
      <use x="350.382812" xlink:href="#DejaVuSans-40"/>
      <use x="389.396484" xlink:href="#DejaVuSans-115"/>
      <use x="441.496094" xlink:href="#DejaVuSans-41"/>
     </g>
    </g>
   </g>
   <g id="line2d_86">
    <path clip-path="url(#p74c580245d)" d="M 598.303125 628.951912 
L 647.108681 634.189111 
L 695.914236 639.975988 
L 744.719792 645.045231 
L 793.525347 648.816626 
L 842.330903 650.648882 
L 891.136458 652.450601 
L 939.942014 653.73318 
L 988.747569 654.511889 
L 1037.553125 655.718125 
" style="fill:none;stroke:#1f77b4;stroke-linecap:square;stroke-width:1.5;"/>
    <g clip-path="url(#p74c580245d)">
     <use style="fill:#1f77b4;stroke:#1f77b4;stroke-linejoin:miter;" x="598.303125" xlink:href="#m98f01f2734" y="628.951912"/>
     <use style="fill:#1f77b4;stroke:#1f77b4;stroke-linejoin:miter;" x="647.108681" xlink:href="#m98f01f2734" y="634.189111"/>
     <use style="fill:#1f77b4;stroke:#1f77b4;stroke-linejoin:miter;" x="695.914236" xlink:href="#m98f01f2734" y="639.975988"/>
     <use style="fill:#1f77b4;stroke:#1f77b4;stroke-linejoin:miter;" x="744.719792" xlink:href="#m98f01f2734" y="645.045231"/>
     <use style="fill:#1f77b4;stroke:#1f77b4;stroke-linejoin:miter;" x="793.525347" xlink:href="#m98f01f2734" y="648.816626"/>
     <use style="fill:#1f77b4;stroke:#1f77b4;stroke-linejoin:miter;" x="842.330903" xlink:href="#m98f01f2734" y="650.648882"/>
     <use style="fill:#1f77b4;stroke:#1f77b4;stroke-linejoin:miter;" x="891.136458" xlink:href="#m98f01f2734" y="652.450601"/>
     <use style="fill:#1f77b4;stroke:#1f77b4;stroke-linejoin:miter;" x="939.942014" xlink:href="#m98f01f2734" y="653.73318"/>
     <use style="fill:#1f77b4;stroke:#1f77b4;stroke-linejoin:miter;" x="988.747569" xlink:href="#m98f01f2734" y="654.511889"/>
     <use style="fill:#1f77b4;stroke:#1f77b4;stroke-linejoin:miter;" x="1037.553125" xlink:href="#m98f01f2734" y="655.718125"/>
    </g>
   </g>
   <g id="line2d_87">
    <path clip-path="url(#p74c580245d)" style="fill:none;stroke:#ff7f0e;stroke-linecap:square;stroke-width:1.5;"/>
    <g clip-path="url(#p74c580245d)">
     <use style="fill:#ff7f0e;stroke:#ff7f0e;" x="0" xlink:href="#m14a2c78175" y="0"/>
    </g>
   </g>
   <g id="line2d_88">
    <path clip-path="url(#p74c580245d)" d="M 598.303125 383.718125 
L 647.108681 448.43037 
L 695.914236 502.981226 
L 744.719792 530.620051 
L 793.525347 552.436271 
L 842.330903 563.41622 
L 891.136458 569.348303 
L 939.942014 572.899064 
L 988.747569 577.378931 
L 1037.553125 579.31868 
" style="fill:none;stroke:#2ca02c;stroke-linecap:square;stroke-width:1.5;"/>
    <g clip-path="url(#p74c580245d)">
     <use style="fill:#2ca02c;stroke:#2ca02c;" x="598.303125" xlink:href="#m7178ea0680" y="383.718125"/>
     <use style="fill:#2ca02c;stroke:#2ca02c;" x="647.108681" xlink:href="#m7178ea0680" y="448.43037"/>
     <use style="fill:#2ca02c;stroke:#2ca02c;" x="695.914236" xlink:href="#m7178ea0680" y="502.981226"/>
     <use style="fill:#2ca02c;stroke:#2ca02c;" x="744.719792" xlink:href="#m7178ea0680" y="530.620051"/>
     <use style="fill:#2ca02c;stroke:#2ca02c;" x="793.525347" xlink:href="#m7178ea0680" y="552.436271"/>
     <use style="fill:#2ca02c;stroke:#2ca02c;" x="842.330903" xlink:href="#m7178ea0680" y="563.41622"/>
     <use style="fill:#2ca02c;stroke:#2ca02c;" x="891.136458" xlink:href="#m7178ea0680" y="569.348303"/>
     <use style="fill:#2ca02c;stroke:#2ca02c;" x="939.942014" xlink:href="#m7178ea0680" y="572.899064"/>
     <use style="fill:#2ca02c;stroke:#2ca02c;" x="988.747569" xlink:href="#m7178ea0680" y="577.378931"/>
     <use style="fill:#2ca02c;stroke:#2ca02c;" x="1037.553125" xlink:href="#m7178ea0680" y="579.31868"/>
    </g>
   </g>
   <g id="line2d_89">
    <path clip-path="url(#p74c580245d)" style="fill:none;stroke:#d62728;stroke-linecap:square;stroke-width:1.5;"/>
    <g clip-path="url(#p74c580245d)">
     <use style="fill:#d62728;stroke:#d62728;stroke-linejoin:miter;" x="0" xlink:href="#ma387d66e10" y="0"/>
    </g>
   </g>
   <g id="patch_21">
    <path d="M 576.340625 669.318125 
L 576.340625 370.118125 
" style="fill:none;stroke:#000000;stroke-linecap:square;stroke-linejoin:miter;stroke-width:0.8;"/>
   </g>
   <g id="patch_22">
    <path d="M 1059.515625 669.318125 
L 1059.515625 370.118125 
" style="fill:none;stroke:#000000;stroke-linecap:square;stroke-linejoin:miter;stroke-width:0.8;"/>
   </g>
   <g id="patch_23">
    <path d="M 576.340625 669.318125 
L 1059.515625 669.318125 
" style="fill:none;stroke:#000000;stroke-linecap:square;stroke-linejoin:miter;stroke-width:0.8;"/>
   </g>
   <g id="patch_24">
    <path d="M 576.340625 370.118125 
L 1059.515625 370.118125 
" style="fill:none;stroke:#000000;stroke-linecap:square;stroke-linejoin:miter;stroke-width:0.8;"/>
   </g>
   <g id="text_73">
    <!-- Dataset: Mushroom, Support=10% -->
    <g transform="translate(713.18125 364.118125)scale(0.12 -0.12)">
     <use xlink:href="#DejaVuSans-68"/>
     <use x="77.001953" xlink:href="#DejaVuSans-97"/>
     <use x="138.28125" xlink:href="#DejaVuSans-116"/>
     <use x="177.490234" xlink:href="#DejaVuSans-97"/>
     <use x="238.769531" xlink:href="#DejaVuSans-115"/>
     <use x="290.869141" xlink:href="#DejaVuSans-101"/>
     <use x="352.392578" xlink:href="#DejaVuSans-116"/>
     <use x="391.601562" xlink:href="#DejaVuSans-58"/>
     <use x="425.292969" xlink:href="#DejaVuSans-32"/>
     <use x="457.080078" xlink:href="#DejaVuSans-77"/>
     <use x="543.359375" xlink:href="#DejaVuSans-117"/>
     <use x="606.738281" xlink:href="#DejaVuSans-115"/>
     <use x="658.837891" xlink:href="#DejaVuSans-104"/>
     <use x="722.216797" xlink:href="#DejaVuSans-114"/>
     <use x="761.080078" xlink:href="#DejaVuSans-111"/>
     <use x="822.261719" xlink:href="#DejaVuSans-111"/>
     <use x="883.443359" xlink:href="#DejaVuSans-109"/>
     <use x="980.855469" xlink:href="#DejaVuSans-44"/>
     <use x="1012.642578" xlink:href="#DejaVuSans-32"/>
     <use x="1044.429688" xlink:href="#DejaVuSans-83"/>
     <use x="1107.90625" xlink:href="#DejaVuSans-117"/>
     <use x="1171.285156" xlink:href="#DejaVuSans-112"/>
     <use x="1234.761719" xlink:href="#DejaVuSans-112"/>
     <use x="1298.238281" xlink:href="#DejaVuSans-111"/>
     <use x="1359.419922" xlink:href="#DejaVuSans-114"/>
     <use x="1400.533203" xlink:href="#DejaVuSans-116"/>
     <use x="1439.742188" xlink:href="#DejaVuSans-61"/>
     <use x="1523.53125" xlink:href="#DejaVuSans-49"/>
     <use x="1587.154297" xlink:href="#DejaVuSans-48"/>
     <use x="1650.777344" xlink:href="#DejaVuSans-37"/>
    </g>
   </g>
   <g id="legend_4">
    <g id="patch_25">
     <path d="M 934.764063 437.230625 
L 1052.515625 437.230625 
Q 1054.515625 437.230625 1054.515625 435.230625 
L 1054.515625 377.118125 
Q 1054.515625 375.118125 1052.515625 375.118125 
L 934.764063 375.118125 
Q 932.764063 375.118125 932.764063 377.118125 
L 932.764063 435.230625 
Q 932.764063 437.230625 934.764063 437.230625 
z
" style="fill:#ffffff;opacity:0.8;stroke:#cccccc;stroke-linejoin:miter;"/>
    </g>
    <g id="line2d_90">
     <path d="M 936.764063 383.216562 
L 956.764063 383.216562 
" style="fill:none;stroke:#1f77b4;stroke-linecap:square;stroke-width:1.5;"/>
    </g>
    <g id="line2d_91">
     <g>
      <use style="fill:#1f77b4;stroke:#1f77b4;stroke-linejoin:miter;" x="946.764063" xlink:href="#m98f01f2734" y="383.216562"/>
     </g>
    </g>
    <g id="text_74">
     <!-- CP4AR -->
     <g transform="translate(964.764063 386.716562)scale(0.1 -0.1)">
      <use xlink:href="#DejaVuSans-67"/>
      <use x="69.824219" xlink:href="#DejaVuSans-80"/>
      <use x="130.126953" xlink:href="#DejaVuSans-52"/>
      <use x="193.75" xlink:href="#DejaVuSans-65"/>
      <use x="262.158203" xlink:href="#DejaVuSans-82"/>
     </g>
    </g>
    <g id="line2d_92">
     <path d="M 936.764063 397.894687 
L 956.764063 397.894687 
" style="fill:none;stroke:#ff7f0e;stroke-linecap:square;stroke-width:1.5;"/>
    </g>
    <g id="line2d_93">
     <g>
      <use style="fill:#ff7f0e;stroke:#ff7f0e;" x="946.764063" xlink:href="#m14a2c78175" y="397.894687"/>
     </g>
    </g>
    <g id="text_75">
     <!-- MNR (SPMF) -->
     <g transform="translate(964.764063 401.394687)scale(0.1 -0.1)">
      <use xlink:href="#DejaVuSans-77"/>
      <use x="86.279297" xlink:href="#DejaVuSans-78"/>
      <use x="161.083984" xlink:href="#DejaVuSans-82"/>
      <use x="230.566406" xlink:href="#DejaVuSans-32"/>
      <use x="262.353516" xlink:href="#DejaVuSans-40"/>
      <use x="301.367188" xlink:href="#DejaVuSans-83"/>
      <use x="364.84375" xlink:href="#DejaVuSans-80"/>
      <use x="425.146484" xlink:href="#DejaVuSans-77"/>
      <use x="511.425781" xlink:href="#DejaVuSans-70"/>
      <use x="568.945312" xlink:href="#DejaVuSans-41"/>
     </g>
    </g>
    <g id="line2d_94">
     <path d="M 936.764063 412.972812 
L 956.764063 412.972812 
" style="fill:none;stroke:#2ca02c;stroke-linecap:square;stroke-width:1.5;"/>
    </g>
    <g id="line2d_95">
     <g>
      <use style="fill:#2ca02c;stroke:#2ca02c;" x="946.764063" xlink:href="#m7178ea0680" y="412.972812"/>
     </g>
    </g>
    <g id="text_76">
     <!-- SATAR (optimisé) -->
     <g transform="translate(964.764063 416.472812)scale(0.1 -0.1)">
      <use xlink:href="#DejaVuSans-83"/>
      <use x="65.351562" xlink:href="#DejaVuSans-65"/>
      <use x="126.009766" xlink:href="#DejaVuSans-84"/>
      <use x="179.34375" xlink:href="#DejaVuSans-65"/>
      <use x="247.751953" xlink:href="#DejaVuSans-82"/>
      <use x="317.234375" xlink:href="#DejaVuSans-32"/>
      <use x="349.021484" xlink:href="#DejaVuSans-40"/>
      <use x="388.035156" xlink:href="#DejaVuSans-111"/>
      <use x="449.216797" xlink:href="#DejaVuSans-112"/>
      <use x="512.693359" xlink:href="#DejaVuSans-116"/>
      <use x="551.902344" xlink:href="#DejaVuSans-105"/>
      <use x="579.685547" xlink:href="#DejaVuSans-109"/>
      <use x="677.097656" xlink:href="#DejaVuSans-105"/>
      <use x="704.880859" xlink:href="#DejaVuSans-115"/>
      <use x="756.980469" xlink:href="#DejaVuSans-233"/>
      <use x="818.503906" xlink:href="#DejaVuSans-41"/>
     </g>
    </g>
    <g id="line2d_96">
     <path d="M 936.764063 427.650937 
L 956.764063 427.650937 
" style="fill:none;stroke:#d62728;stroke-linecap:square;stroke-width:1.5;"/>
    </g>
    <g id="line2d_97">
     <g>
      <use style="fill:#d62728;stroke:#d62728;stroke-linejoin:miter;" x="946.764063" xlink:href="#ma387d66e10" y="427.650937"/>
     </g>
    </g>
    <g id="text_77">
     <!-- SATAR -->
     <g transform="translate(964.764063 431.150937)scale(0.1 -0.1)">
      <use xlink:href="#DejaVuSans-83"/>
      <use x="65.351562" xlink:href="#DejaVuSans-65"/>
      <use x="126.009766" xlink:href="#DejaVuSans-84"/>
      <use x="179.34375" xlink:href="#DejaVuSans-65"/>
      <use x="247.751953" xlink:href="#DejaVuSans-82"/>
     </g>
    </g>
   </g>
  </g>
 </g>
 <defs>
  <clipPath id="p42603d826e">
   <rect height="299.2" width="483.175" x="39.765625" y="15.118125"/>
  </clipPath>
  <clipPath id="p4c07a800b4">
   <rect height="299.2" width="483.175" x="576.340625" y="15.118125"/>
  </clipPath>
  <clipPath id="p78165b46af">
   <rect height="299.2" width="483.175" x="39.765625" y="370.118125"/>
  </clipPath>
  <clipPath id="p74c580245d">
   <rect height="299.2" width="483.175" x="576.340625" y="370.118125"/>
  </clipPath>
 </defs>
</svg>
